<svg preserveAspectRatio="none" width="100%" height="100%" overflow="visible" style="display: block;" viewBox="0 0 498 495" fill="none" xmlns="http://www.w3.org/2000/svg">
<g id="Investment Data [Vectorized]">
<path id="Vector" d="M457.142 321.326C456.006 323.721 454.571 325.543 451.898 326.4C445.592 328.417 439.077 330.187 432.706 331.978L398.16 341.51L294.309 368.976C278.818 373.075 263.427 377.908 247.994 382.245C238.216 384.996 227.574 388.318 217.536 389.649C207.535 390.97 201.027 389.525 191.983 385.033C184.638 381.385 177.488 377.351 170.186 373.62C158.456 367.677 146.649 361.882 134.766 356.245L105.585 341.943C97.9843 338.24 90.3727 334.66 83.1536 330.249C78.3317 327.303 73.6589 325.512 71.895 319.64C69.951 313.165 68.9282 306.529 67.8662 299.873C66.469 290.915 65.0251 281.965 63.5342 273.023C58.2616 243.764 53.5154 214.414 49.298 184.986C46.4712 166.418 43.0848 147.549 42.0337 128.798C41.7 122.849 43.5252 117.854 49.8181 115.973C57.5199 113.876 66.0283 114.037 74.024 113.722L105.157 112.531C124.81 111.554 144.44 110.179 164.036 108.408C168.057 108.062 185.953 105.768 188.207 107.022C188.257 107.608 188.273 107.72 187.846 108.19C187.015 109.102 185.341 109.434 184.151 109.619C180.339 110.209 176.311 110.128 172.453 110.433C162.373 111.232 152.315 112.014 142.218 112.593C125.963 113.525 109.746 114.986 93.4833 115.815C86.502 116.171 54.1827 116.79 49.1803 119.521C45.2682 121.658 44.8365 126.311 44.8349 130.211C44.8293 143.814 49.2376 160.076 51.3899 173.802C56.3182 207.331 61.648 240.8 67.3788 274.203C69.1996 284.748 71.1153 295.277 73.1257 305.788C73.8257 309.372 75.8302 317.4 76.1249 320.547C77.1912 319.417 79.2016 317.369 80.6941 316.899C90.8529 313.678 103.208 311.482 113.582 309.585C137.003 305.31 160.481 301.345 184.008 297.691L206.796 294.089C209.942 293.593 215.184 292.931 218.206 292.248C220.794 291.996 223.932 291.44 226.548 291.042C233.837 289.655 242.528 288.576 249.946 287.44L302.526 279.501C311.459 278.133 320.438 276.977 329.303 275.241C331.989 274.919 333.834 273.225 333.43 270.274C331.276 254.541 326.501 238.419 322.66 223.035C324.316 222.326 324.609 221.627 325.493 220.121C329.692 238.33 335.562 257.062 337.865 275.596C345.59 280.345 361.694 284.056 370.973 286.597C389.953 291.796 436.114 303.669 451.375 314.458C454.002 316.317 455.95 318.319 457.142 321.326ZM204.081 384.17C207.541 385.125 210.38 385.388 213.947 384.695C234.414 380.72 254.601 374.743 274.724 369.35L370.026 343.88L417.947 331.347L432.871 327.576C436.783 326.623 450.506 324.188 451.873 320.432C451.499 317.824 446.395 315.776 444.194 314.95C436.553 312.076 428.794 309.443 421.065 306.803C406.763 301.844 392.384 297.107 377.932 292.595C371.327 290.502 335.534 278.197 331.08 279.182C322.52 279.887 308.368 282.841 299.316 284.314L235.33 294.497L143.07 308.503C125.133 311.268 107.166 314.022 89.3368 317.416C87.1702 317.827 81.6487 319.052 81.0414 321.571C82.5401 325.661 99.1577 333.404 103.626 335.644L131.608 349.393L168.991 367.828C179.468 373.032 193.147 380.652 204.081 384.17Z" fill="var(--fill-0, white)"/>
<path id="Vector_2" d="M198.26 328.03C204.702 327.343 207.796 330.945 213.072 334.113C214.339 334.874 217.946 336.962 217.445 338.561C215.556 339.904 175.962 348.276 172.243 348.464C170.078 347.716 152.905 339.626 152.237 338.419L152.531 337.865C154.966 336.148 165.938 334.388 169.518 333.679L198.26 328.03Z" fill="var(--fill-0, white)"/>
<path id="Vector_3" d="M258.53 336.708C258.718 336.684 258.906 336.668 259.094 336.653C264.801 336.238 269.768 341.25 274.236 344.362C274.816 344.764 274.965 345.139 274.989 345.727C272.029 347.338 261.741 349.529 257.854 350.463L231.025 356.948C229.885 357.229 228.859 357.282 227.783 356.805C225.294 355.707 215.816 350.194 214.888 348.22L215.173 347.802C216.748 346.97 218.574 346.234 220.303 345.798C230.309 343.264 240.436 341.238 250.412 338.565C253.018 337.868 255.864 337.052 258.53 336.708Z" fill="var(--fill-0, white)"/>
<path id="Vector_4" d="M248.076 318.096C254.872 317.561 257.069 320.615 262.574 323.776C264.054 324.627 266.005 325.79 266.902 327.232L266.736 327.727C262.229 330.097 236.211 334.957 230.091 336.216C228.946 336.433 227.527 336.584 226.352 336.742C222.812 335.362 213.243 328.578 210.672 325.936C213.602 324.711 224.764 322.96 228.663 322.239C235.17 321.029 241.643 319.646 248.076 318.096Z" fill="var(--fill-0, white)"/>
<path id="Vector_5" d="M197.508 308.567C203.125 309.234 210.374 314.743 215.157 317.948C208.945 320.568 201.343 321.555 194.622 322.734L173.795 326.431C170.676 325.775 158.866 318.133 156.063 315.965C161.282 314.124 171.229 312.917 176.943 311.971C183.602 310.866 190.915 309.397 197.508 308.567Z" fill="var(--fill-0, white)"/>
<path id="Vector_6" d="M385.934 306.982C391.481 306.613 403.302 310.523 407.75 313.852C403.567 315.569 397.13 316.942 392.645 318.028C384.235 320.008 375.837 322.041 367.456 324.132C365.557 324.547 363.652 324.94 361.747 325.311C359.117 324.454 347.7 318.938 347.277 316.494C347.417 316.302 347.557 316.113 347.697 315.921C357.934 313.487 376.426 309.285 385.934 306.982Z" fill="var(--fill-0, white)"/>
<path id="Vector_7" d="M328.282 286.928C333.013 286.272 338.217 289.504 342.708 290.638C344.298 291.04 347.588 291.908 348.672 293.055L348.6 293.602C345.164 296.122 318.427 300.129 312.573 301.141C310.451 301.586 306.853 302.405 304.463 301.523C301.853 300.56 294.43 296.369 292.692 294.244C292.412 293.901 292.627 293.716 292.823 293.238C295.78 291.682 324.095 287.139 328.282 286.928Z" fill="var(--fill-0, white)"/>
<path id="Vector_8" d="M357.807 296.801C363.297 295.991 371.745 300.585 377.338 302.581C368.753 306.004 349.356 309.833 339.505 312.094C334.124 313.545 331.821 311.516 327.292 308.975C325.935 308.213 321.201 305.895 320.768 304.633C321.773 303.552 324.484 302.922 325.941 302.694C336.464 301.047 347.299 298.259 357.807 296.801Z" fill="var(--fill-0, white)"/>
<path id="Vector_9" d="M238.338 301.765C243.628 301.069 246.276 303.177 250.31 306.194C251.647 307.194 255.449 309.511 255.002 311.231C252.938 312.463 231.525 316.051 227.366 316.828C222.591 316.942 213.756 310.247 209.377 307.338C213.953 305.14 232.537 302.364 238.338 301.765Z" fill="var(--fill-0, white)"/>
<path id="Vector_10" d="M336.931 318.758C340.841 318.096 350.256 324.689 354 326.972C349.194 328.717 343.038 329.976 338.024 331.143C333.423 332.213 328.381 333.565 323.775 334.4C318.823 335.257 310.494 329.079 306.904 325.92C312.56 323.507 330.65 319.68 336.931 318.758Z" fill="var(--fill-0, white)"/>
<path id="Vector_11" d="M436.397 319.328C437.235 319.275 437.617 319.151 438.302 319.615L438.059 320.048C435.797 321.144 424.175 324.33 421.33 325.119C408.407 328.658 395.462 332.117 382.492 335.496C330.989 349.003 279.357 362.028 227.606 374.57C227.119 374.684 226.725 374.69 226.227 374.73L226.037 374.403C228.607 372.645 269.156 362.625 274.546 361.232L355.454 340.241L403.704 327.696C413.913 325.002 426.148 321.506 436.397 319.328Z" fill="var(--fill-0, white)"/>
<path id="Vector_12" d="M279.679 294.938C284.227 293.916 293.251 300.949 296.542 303.932C287.15 306.163 276.807 307.765 267.232 309.424C261.396 309.706 256.982 305.376 252.175 302.348C251.39 301.853 251.049 301.28 250.951 300.437C253.781 298.472 275.039 295.636 279.679 294.938Z" fill="var(--fill-0, white)"/>
<path id="Vector_13" d="M300.129 327.111C303.919 327.752 310.504 333.695 313.728 336.374C309.408 338.735 290.879 342.503 285.204 343.654C282.502 343.081 273.156 336.872 271.765 334.484L271.948 334.113C274.812 332.362 295.809 327.907 300.129 327.111Z" fill="var(--fill-0, white)"/>
<path id="Vector_14" d="M142.461 317.843C146.695 317.072 152.064 320.376 155.585 322.465C157.246 323.452 161.965 325.704 162.132 327.641C159.959 329.605 144.703 331.653 141.073 332.161C139.866 332.328 138.155 332.061 137.116 331.48C134.27 329.89 121.796 325.005 120.959 322.347C123.004 320.358 138.825 318.301 142.461 317.843Z" fill="var(--fill-0, white)"/>
<path id="Vector_15" d="M309.589 306.086C315.701 305.582 317.799 308.232 322.794 311.191C323.989 311.9 325.63 312.992 326.479 314.053C325.122 316.076 309.133 318.845 305.883 319.43C304.68 319.761 303.165 319.987 301.916 320.209C301.333 319.949 300.763 319.662 300.206 319.349C298.157 318.192 289.472 312.494 288.993 310.69C291.046 309.358 306.398 306.538 309.589 306.086Z" fill="var(--fill-0, white)"/>
<path id="Vector_16" d="M205.406 349.402C205.884 349.461 206.878 349.615 207.569 349.919C208.974 350.414 221.402 357.248 220.067 358.64C218.021 360.771 205.493 362.813 202.584 363.376C199.829 362.94 186.97 357.638 187.523 354.42C189.569 352.53 202.342 349.817 205.406 349.402Z" fill="var(--fill-0, white)"/>
<path id="Vector_17" d="M278.789 312.249C282.829 311.89 290.957 319.092 294.049 321.623C289.381 323.535 281.685 325.104 276.629 325.775C273.585 325.153 261.635 318.693 260.815 316.296C262.387 315.08 275.84 312.787 278.789 312.249Z" fill="var(--fill-0, white)"/>
<path id="Vector_18" d="M161.635 354.064L161.962 354.098C163.842 354.293 173.7 359.123 175.69 360.276C179.896 362.711 201.192 371.668 202.811 374.656L202.492 375.485C201.536 375.355 199.924 374.978 199.108 374.579C193.698 371.937 163.885 358.566 161.258 356.122C160.936 354.999 160.997 355.41 161.635 354.064Z" fill="var(--fill-0, white)"/>
<path id="Vector_19" d="M117.422 332.881C121.151 333.605 135.837 340.096 139.152 343.211C139.496 343.533 139.253 344.074 139.141 344.653C135.702 345.123 116.679 336.356 117.422 332.881Z" fill="var(--fill-0, white)"/>
<path id="Vector_20" d="M322.664 146.68C320.7 144.053 318.882 142.282 316.719 139.868C316.068 139.138 316.19 139.046 316.305 138.302C316.532 138.07 317.117 137.498 317.419 137.389C327.429 133.761 337.199 129.884 346.81 125.249C348.712 124.332 355.774 121.125 356.994 123.474C357.091 126.469 353.428 134.71 351.965 137.644C349.963 141.662 343.446 161.506 339.714 162.246C337.196 161.898 333.694 159.088 331.929 157.321C328.602 161.942 323.8 167.375 320.096 171.823L300.739 195.215C291.146 206.811 281.834 218.997 272.25 230.409C262.856 241.965 262.218 239.827 250.996 231.932C249.279 231.032 240.965 224.443 239.697 225.373C218.804 240.704 198.684 257.491 177.857 272.999C172.868 276.714 167.905 272.078 163.27 269.412C159.217 267.075 155.139 264.782 151.036 262.533C149.835 261.9 149.427 261.566 148.119 262.042C145.499 264.081 142.198 266.743 139.743 268.964L139.499 269.141C134.017 273.177 128.098 278.902 122.681 283.18C120.252 285.098 114.869 290.455 112.321 291.357C108.587 292.681 102.483 293.443 98.4026 294.242C96.7963 294.272 94.9789 294.896 92.8814 294.934L92.2159 294.288C92.1723 290.189 90.5149 284.17 91.9127 280.335C93.089 277.108 144.845 234.243 148.386 233.015C149.277 232.706 150.269 233.335 150.981 233.83C152.907 235.168 154.554 237.141 156.225 238.779C158.823 241.325 167.48 249.596 170.276 250.834C170.651 250.999 171.309 251.172 171.718 251.116C175.706 250.571 222.7 213.801 229.424 208.849C233.354 205.954 237.559 201.9 242.071 200.086C247.965 202.787 253.79 212.426 258.442 213.914C259.854 214.366 275.484 196.778 277.22 194.918L298.129 172.908C305.865 164.603 315.483 155.304 322.664 146.68Z" fill="var(--fill-0, #FF6B35)"/>
<path id="Vector_21" d="M274.823 109.847C275.804 109.429 276.984 108.779 277.992 108.884C280.095 111.379 279.618 120.795 279.416 124.262C278.714 136.329 272.837 146.98 263.464 154.747C254.171 162.425 242.204 166.146 230.166 165.1C217.893 163.976 207.508 158.193 199.678 148.781C192.018 139.587 188.38 127.726 189.577 115.848C191.656 94.4404 208.781 78.296 230.313 75.9915C234.039 75.5927 238.326 75.7434 242.067 76.0255C242.018 81.7523 240.185 89.0307 239.298 94.7838C237.604 105.767 235.198 117.15 233.58 128.08C246.162 123.032 259.825 115.551 272.403 110.955L274.823 109.847ZM272.756 112.832C269.791 115.174 240.21 128.168 235.014 130.586C233.994 131.061 232.319 131.279 231.092 130.667C230.568 129.937 230.761 128.213 230.897 127.332C233.4 111.178 237.454 94.7483 238.737 78.477C236.161 78.8492 233.466 78.8646 230.844 79.1425C213.627 80.9675 198.507 92.1662 193.768 109.273C190.724 120.246 192.278 131.976 198.076 141.792C217.063 174.178 265.802 167.546 275.412 131.322C276.35 127.786 277.499 114.428 275.7 111.478C274.749 111.901 273.663 112.349 272.756 112.832Z" fill="var(--fill-0, #FF6B35)"/>
<path id="Vector_22" d="M272.403 110.955L274.823 109.847C274.974 110.322 275.106 110.788 275.194 111.278L275.7 111.478C274.749 111.901 273.663 112.349 272.756 112.832C272.331 112.146 272.447 111.846 272.403 110.955Z" fill="var(--fill-0, #FF6B35)"/>
<path id="Vector_23" d="M250.921 68.913C252.508 68.9371 254.332 69.4386 255.872 69.8207C267.157 72.6199 277.13 80.2553 283.082 90.1414C284.194 91.988 287.002 96.2989 286.296 98.4066C285.471 100.866 266.097 108.826 262.556 110.488C259.47 111.958 240.085 121.865 237.705 121.168C236.315 117.767 240.576 105.856 241.652 101.852C243.289 96.5021 244.415 90.4158 246.083 85.1499C247.264 81.4229 248.334 71.1943 250.921 68.913Z" fill="var(--fill-0, #FF6B35)"/>
<path id="Vector_24" d="M73.6343 180.766L84.7901 254.16C86.7454 266.226 88.4902 278.257 90.9718 290.236C91.2295 291.481 91.5221 293.231 91.6342 294.485L91.7191 295.47C93.271 296.67 101.139 295.431 103.112 294.806C115.127 292.743 131.225 292.206 142.737 289.381L143.948 289.395C146.932 288.793 150.575 288.409 153.638 288.018L154.299 287.943C158.711 287.268 163.47 286.628 167.809 285.708L169.023 285.611C175.415 285.122 186.212 283.213 192.672 282.046L193.797 282.011C197.11 281.482 202.885 280.36 205.989 280.243L207.407 280.042C209.357 279.434 217.123 278.413 219.492 278.062L220.935 278.03C223.002 277.409 227.522 276.819 229.765 276.483C234.807 275.764 239.838 274.978 244.859 274.126L245.936 274.207C249.325 273.418 253.502 272.807 256.983 272.246C257.408 272.601 257.513 272.599 258.024 272.846C259.003 272.695 258.594 272.911 259.265 272.13C261.308 271.429 266.567 270.843 268.855 270.59C269.458 271.3 269.096 270.989 270.179 271.326C271.39 271.016 270.94 271.344 271.621 270.375C273.988 269.429 290.72 267.038 294.289 266.484L295.771 266.331C299.044 265.507 305.071 264.855 308.598 264.392C308.502 265.431 308.443 266.203 308.23 267.23C303.867 268.257 295.176 269.312 290.411 270.041L259.397 274.851L182.087 286.634C160.865 289.88 139.623 292.995 118.363 295.979C113.071 296.733 93.7535 299.675 89.8629 299.353C88.8217 298.012 72.3376 193.571 70.4586 181.406L70.9364 182.137C72.1963 182.267 72.8646 181.669 73.6343 180.766Z" fill="var(--fill-0, white)"/>
<path id="Vector_25" d="M312.704 379.724C326.644 378.734 318.661 398.193 309.509 398.224C307.117 398.231 293.315 403.1 292.42 400.854C294.415 397.135 314.475 397.244 316.046 391.492L315.657 390.957C313.127 390.605 278.978 397.436 273.841 398.361C260.761 399.787 246.698 406.228 234.511 400.529C236.321 399.032 244.195 393.844 246.232 393.293C252.674 391.545 260.427 390.048 267 388.655C276.54 386.586 286.097 384.593 295.67 382.681C301.103 381.611 307.258 380.296 312.704 379.724ZM249.564 401.114C261.141 398.723 272.757 396.526 284.408 394.521C290.279 393.485 302.167 391.758 307.029 389.794C306.94 387.672 307.137 384.918 305.769 383.374L304.764 383.056C299.238 384.219 248.476 394.388 247.454 395.319C247.616 397.043 247.83 398.911 247.888 400.628C248.538 401.133 248.746 401.074 249.564 401.114ZM307.555 382.456C308.781 385.358 308.481 388.962 309.674 389.791L310.388 389.772C314.583 389.082 319.305 389.488 317.839 384.012C317.547 382.923 317.481 382.576 316.719 381.744C316.205 381.506 315.9 381.317 315.349 381.2C312.42 381.806 310.544 382.134 307.555 382.456ZM241.772 400.749C243.119 401.092 244.578 401.102 245.973 401.17C245.86 399.731 245.797 397.429 245.279 396.176C244.895 396.015 244.877 395.935 244.526 395.963C243.261 396.743 240.015 398.447 239.391 399.576L239.535 400.118C240.457 400.551 240.752 400.563 241.772 400.749Z" fill="var(--fill-0, white)"/>
<path id="Vector_26" d="M83.3319 334.159C84.556 334.431 85.1717 334.645 85.8823 335.536C85.7086 336.452 85.2772 336.776 84.4845 337.336C75.09 343.979 65.2943 350.101 56.1302 357.081C53.9521 358.739 45.7945 363.438 44.6504 365.251C46.2891 368.577 71.2072 376.819 76.0527 379.343C93.2321 388.297 112.334 393.581 130.464 400.597L176.38 418.269C180.426 419.803 184.815 422.04 188.605 423.343C197.498 417.947 219.71 392.25 226.019 390.731L226.251 391.1C225.97 391.666 225.553 392.049 225.122 392.538C223.499 393.924 222.078 395.48 220.501 396.984C210.766 406.262 201.766 416.496 191.256 424.911C189.786 425.833 189.108 426.207 187.397 425.768C181.327 424.209 175.525 421.452 169.742 419.042C161.535 415.617 153.287 412.298 144.998 409.074C140.766 407.435 136.508 405.869 132.273 404.242C121.54 399.839 109.983 396.882 99.3245 392.396C83.3222 385.494 67.5307 378.554 51.1658 372.518C47.6651 371.225 36.5694 366.374 43.2666 362.077C50.1844 357.637 57.0792 352.019 64.0173 347.722C69.2973 344.449 78.1589 336.448 83.3319 334.159Z" fill="var(--fill-0, #FF6B35)"/>
<path id="Vector_27" d="M148.119 262.042C149.427 261.566 149.835 261.9 151.036 262.533L150.514 263.166L150.588 263.423C150.784 264.113 150.929 264.399 150.79 265.107L150.125 265.636C149.929 267.478 150.689 268.867 150.809 270.807L150.469 271.213L149.835 271.231C149.994 272.346 150.045 272.653 150.438 273.703C150.722 272.893 150.765 272.15 150.868 271.299C151.244 273.322 151.805 278.575 152.261 280.015C152.494 281.959 152.968 286.414 153.638 288.018C150.575 288.409 146.932 288.793 143.948 289.395C144.222 287.115 142.609 273.475 141.574 271.669L140.712 271.533C139.456 272.73 138.608 273.731 139.356 275.514L139.851 275.592C140.189 274.848 140.174 274.604 140.256 273.813C140.841 277.362 141.563 286.62 142.737 289.381C131.225 292.206 115.127 292.743 103.112 294.806C101.463 294.786 99.7366 295 98.4026 294.242C102.483 293.443 108.587 292.681 112.321 291.357C114.869 290.455 120.252 285.098 122.681 283.18C128.098 278.902 134.017 273.177 139.499 269.141L139.743 268.964C140.918 269.145 141.181 268.953 141.725 269.629C141.678 270.317 141.598 270.515 141.864 271.149L142.712 271.272L143.364 270.63C143.556 269.246 143.191 269.738 142.624 268.105C144.123 267.268 145.543 268.333 146.68 267.378C147.425 266.753 147.78 264.046 148.746 263.6C149.6 265.09 148.646 265.829 149.354 266.604C149.442 266.046 149.524 265.486 149.598 264.926C149.724 263.929 149.961 263.001 149.443 262.335L148.558 262.427L148.119 262.042ZM122.585 290.812C123.962 291.591 126.316 290.658 127.66 289.937C130.187 288.58 139.143 290.357 140.495 287.022C139.853 286.362 138.853 286.54 137.908 286.569L137.776 286.089C140.412 282.279 138.06 281.794 139.117 278.431C138.584 278.048 138.883 278.13 138.258 278.064L137.924 278.21C135.146 279.406 133.677 279.061 131.37 279.802C130.093 280.212 125.324 285.875 123.848 286.179C123.104 285.875 123.057 285.898 122.44 285.338C120.088 287.688 122.972 288.806 119.218 290.339C119.957 291.014 121.503 290.844 122.585 290.812ZM146.626 274.888C147.595 273.89 148.126 269.477 147.759 268.536C146.851 269.004 146.326 269.235 145.531 269.863C145.146 271.208 145.82 271.878 146.559 273.025C146.585 273.648 146.616 274.264 146.626 274.888ZM147.801 276.89C148.772 275.194 148.799 274.749 148.979 272.822L148.736 272.681C148.291 274.175 147.516 275.6 147.801 276.89ZM140.822 271.038L140.932 270.076C140.188 269.351 140.347 269.571 139.164 269.295C139.775 270.473 139.558 270.523 140.518 271.071L140.822 271.038ZM137.149 274.361L137.574 273.952L137.225 273.609L136.731 274.094L137.149 274.361Z" fill="var(--fill-0, #FF6B35)"/>
<path id="Vector_28" d="M70.4586 181.406C69.4 175.281 63.551 140.281 64.5367 136.265C67.1709 134.949 88.2045 133.848 92.6706 133.49L140.988 129.606L167.047 127.553C172.359 127.11 177.773 126.552 183.092 126.305C184.536 126.238 185.257 126.142 186.267 126.962C186.623 127.991 186.672 127.526 186.243 128.413C185.38 129.004 184.38 129.257 183.344 129.325C176.116 129.798 168.884 130.486 161.662 131.063L118.3 134.575L91.5122 136.731C84.4901 137.361 74.3726 138.435 67.4659 138.582C68.1918 141.203 69.3611 151.026 69.8031 154.278L73.6343 180.766C72.8646 181.669 72.1963 182.267 70.9364 182.137L70.4586 181.406Z" fill="var(--fill-0, white)"/>
<path id="Vector_29" d="M296.184 205.883C297.12 204.61 298.065 203.092 299.351 202.261L299.906 202.314C300.771 204.193 303.402 218.062 304.016 220.992C306.874 234.611 309.777 248.359 312.626 261.993C312.84 263.022 313.105 264.583 312.959 265.63C311.692 267.095 310.217 266.99 308.23 267.23C308.443 266.203 308.502 265.431 308.598 264.393C307.524 258.43 305.896 251.745 304.597 245.777C301.699 232.498 298.895 219.201 296.184 205.883Z" fill="var(--fill-0, white)"/>
<path id="Vector_30" d="M139.616 144.607C141.111 144.239 145.011 144.057 145.618 145.811L145.344 146.259C142.687 147.736 139.21 147.937 136.233 148.177C119.028 149.568 102.097 150.822 84.8349 151.402C82.4128 151.323 80.0417 151.387 78.0207 150.046L78.0229 149.61C79.581 148.731 81.489 148.764 83.2354 148.642C101.942 147.341 120.964 146.402 139.616 144.607Z" fill="var(--fill-0, #FF6B35)"/>
<path id="Vector_31" d="M284.036 103.604C285.429 103.528 286.04 103.647 287.291 104.293C302.38 112.101 303.486 129.925 307.043 144.489C307.906 148.018 309.371 151.73 309.844 155.322C309.997 156.481 308.179 157.905 307.403 158.599C306.144 157.912 305.375 151.587 305.047 149.826C303.665 142.6 302.369 135.314 300.229 128.261C296.743 116.768 292.681 109.073 280.475 105.944C281.603 105.157 282.875 104.36 284.036 103.604Z" fill="var(--fill-0, white)"/>
<path id="Vector_32" d="M282.68 122.666C283.884 123.746 292.578 167.224 293.757 172.365C293.991 173.386 292.129 175.107 291.389 175.838C290.893 176.476 291.2 176.286 290.495 176.507C289.132 175.105 282.413 137.397 281.632 132.536C281.428 131.267 282.403 124.633 282.68 122.666Z" fill="var(--fill-0, white)"/>
<path id="Vector_33" d="M140.094 183.686C141.573 181.707 149.116 173.813 151.017 172.727C155.88 169.951 165.642 168.563 171.203 168.218L170.297 168.85C170.757 169.494 171.462 169.363 172.591 169.745C169.072 170.244 155.789 171.889 153.416 173.889C151.467 179.001 161.289 225.819 161.328 234.686C161.673 236.164 162.214 237.79 161.852 239.23L161.499 239.522C160.653 239.063 160.226 237.997 159.828 237.078C159.142 235.273 157.019 219.169 156.661 216.343C154.948 202.853 152.178 188.623 150.78 175.172C148.291 177.795 142.34 183.413 141.023 186.244C140.868 185.951 140.246 184.112 140.094 183.686Z" fill="var(--fill-0, #FF6B35)"/>
<path id="Vector_34" d="M159.828 237.078C160.036 236.006 160.061 235.223 160.764 234.416L161.328 234.686C161.673 236.164 162.214 237.79 161.852 239.23L161.499 239.522C160.653 239.063 160.226 237.997 159.828 237.078Z" fill="var(--fill-0, #FF6B35)"/>
<path id="Vector_35" d="M98.6049 365.941C98.0497 360.564 99.1845 355.531 102.654 351.28C103.857 349.807 106.382 347.109 108.183 346.509L108.86 346.621C110.047 349.383 101.007 352.957 101.137 358.819C101.91 360.317 103.974 360.521 105.595 360.805C110.701 361.706 115.918 362.748 121.067 363.305C121.712 361.799 124.576 355.93 125.724 355.227C128.209 357.037 123.517 362.12 123.129 364.595C122.638 367.723 123.998 370.597 123.878 373.555C124.752 377.283 125.047 380.692 125.474 384.485C129.271 383.823 132.624 381.998 135.381 379.325L137.224 379.671C133.122 384.216 128.322 386.672 122.133 387.006C121.632 387.031 121.131 387.047 120.63 387.05C121.972 386.047 123.127 385.998 124.785 385.723C124.746 384.872 124.869 385.293 124.141 384.519C123.255 381.475 122.801 378.595 122.249 375.479C121.903 372.259 121.227 368.942 120.643 365.749C118.208 365.01 102.549 361.888 100.466 362.185C99.845 363.073 100.024 363.933 100.049 365.069L99.4089 364.67C98.8847 365.226 98.9184 365.233 98.6049 365.941Z" fill="var(--fill-0, #FF6B35)"/>
<path id="Vector_36" d="M93.9605 220.588C94.554 217.848 96.7981 217.439 97.8838 215.858C104.687 205.907 112.494 205.822 123.615 203.9C125.703 203.539 130.806 202.262 131.424 204.765C132.084 208.758 137.357 236.906 136.232 238.697L135.663 238.862C133.418 237.474 132.482 218.591 131.318 214.851C131.107 214.172 130.048 207.319 130.144 206.717C129.653 206.033 129.432 205.394 128.622 205.368C124.57 205.24 110.466 207.651 107.629 209.596C106.855 211.76 108.262 218.779 108.744 221.314L108.528 221.791L108.243 221.693C107.999 220.378 106.868 212.346 106.558 211.619L106.296 211.537C106.143 214.487 107.353 217.123 106.512 219.998C106.067 217.401 105.489 213.545 105.287 210.939C104.244 212.012 96.3649 220.296 95.8544 220.533L95.7368 220.139C96.1115 219.517 96.2155 219.35 96.5006 218.655L95.9456 218.502C95.1348 219.066 94.6782 220.218 94.2051 221.132L93.9605 220.588Z" fill="var(--fill-0, #FF6B35)"/>
<path id="Vector_37" d="M130.144 206.717C130.398 206.17 130.288 206.21 130.254 205.504C128.218 203.036 121.918 206.331 119.931 205.3C122.538 204.925 127.986 203.578 130.296 204.087C131.212 205.16 130.487 205.921 131.18 207.045L131.424 204.765C132.084 208.758 137.357 236.906 136.232 238.697L135.663 238.862C133.418 237.474 132.482 218.591 131.318 214.851C131.107 214.172 130.048 207.319 130.144 206.717Z" fill="var(--fill-0, #FF6B35)"/>
<path id="Vector_38" d="M312.931 185.516C313.808 184.314 314.829 183.054 315.754 181.871C319.187 194.376 322.1 207.486 325.493 220.121C324.609 221.627 324.316 222.326 322.66 223.035C319.274 210.632 316.289 197.988 312.931 185.516Z" fill="var(--fill-0, white)"/>
<path id="Vector_39" d="M133.109 155.135C135.11 155.03 142.335 154.459 143.437 155.639L143.308 156.362C142.515 157.112 140.984 157.616 139.895 157.746C129.97 158.937 119.981 159.035 110.035 160.155C105.352 160.394 102.406 160.425 97.7755 159.501C104.457 157.624 112.717 157.328 119.669 156.485C124.09 155.949 128.679 155.44 133.109 155.135Z" fill="var(--fill-0, #FF6B35)"/>
<path id="Vector_40" d="M244.858 274.126C243.959 270.129 237.768 231.174 238.829 229.311C239.043 228.935 239.284 229.027 239.672 228.97C241.454 230.535 244.745 261.248 245.564 265.142C245.874 266.613 246.241 272.596 245.936 274.207L244.858 274.126Z" fill="var(--fill-0, #FF6B35)"/>
<path id="Vector_41" d="M183.193 384.225C184.63 384.33 185.369 384.241 186.06 385.571C185.27 389.055 172.073 400.746 168.659 403.125C167.501 403.663 167.871 403.685 166.752 403.564C165.28 401.355 180.787 386.261 183.193 384.225Z" fill="var(--fill-0, #FF6B35)"/>
<path id="Vector_42" d="M93.9605 220.588L94.2051 221.132C94.6782 220.218 95.1348 219.066 95.9456 218.502L96.5006 218.655C96.2155 219.35 96.1115 219.517 95.7368 220.139L95.8544 220.533C95.2864 224.653 98.947 242.499 99.1403 248.475C99.929 252.099 101.986 263.927 101.139 267.121L100.707 267.6C99.3432 266.621 97.7418 252.707 97.6787 250.407C96.945 246.761 93.389 222.563 93.9605 220.588Z" fill="var(--fill-0, #FF6B35)"/>
<path id="Vector_43" d="M97.6786 250.407C98.7098 247.435 97.3111 246.098 97.7188 242.607C98.5707 243.838 98.2959 248.39 98.4826 249.062L99.1403 248.475C99.929 252.099 101.986 263.927 101.139 267.121L100.707 267.6C99.3432 266.621 97.7418 252.707 97.6786 250.407Z" fill="var(--fill-0, #FF6B35)"/>
<path id="Vector_44" d="M172.372 378.527C173.759 378.66 174.671 378.966 175.254 380.247C174.826 382.415 160.061 396.238 157.58 397.906C156.393 398.286 155.346 398.908 154.442 397.884C155.089 396.368 170.132 380.636 172.372 378.527Z" fill="var(--fill-0, #FF6B35)"/>
<path id="Vector_45" d="M91.6295 342.413C92.2492 342.503 91.9445 342.41 92.4951 342.942C92.1337 346.135 69.6126 363.154 65.7849 364.586L65.0858 364.617L64.7198 364.175L64.9065 363.485C68.5709 359.738 87.5593 344.489 91.6295 342.413Z" fill="var(--fill-0, #FF6B35)"/>
<path id="Vector_46" d="M292.981 256.599C292.656 255.131 291.702 248.81 291.659 247.536C291.475 242.035 286.848 218.128 288.615 214.561L288.299 215.346L288.993 214.971L288.925 214.768C290.222 217.125 290.877 221.022 290.965 223.663C291.258 232.523 294.8 244.205 294.392 252.845L294.071 253.977C292.651 254.682 293.235 255.268 292.981 256.599Z" fill="var(--fill-0, #FF6B35)"/>
<path id="Vector_47" d="M161.688 373.363C163.187 373.416 163.928 373.267 164.231 374.771C163.5 376.85 148.294 390.861 145.664 392.851C144.347 393.206 144.656 393.339 143.636 392.931L143.525 392.26C144.653 389.138 158.592 375.705 161.688 373.363Z" fill="var(--fill-0, #FF6B35)"/>
<path id="Vector_48" d="M246.495 198.08C244.157 189.867 247.744 188.514 253.161 183.29C258.903 177.754 267.673 178.112 275.251 176.331C277.283 176.902 276.842 177.574 278.609 177.714C275.274 178.247 261.714 179.945 258.633 181.908C258.3 182.12 258.34 183.344 258.348 183.845L258.199 184.71C257.862 183.981 257.732 183.112 257.568 182.317C256.581 183.19 257.944 182.804 256.869 183.492C256.422 183.366 256.175 183.147 255.825 183.464C251.761 187.144 247.512 190 248.213 195.93C248.444 197.481 248.791 198.772 248.354 200.241L247.911 200.459C247.005 199.919 246.88 199.121 246.495 198.08Z" fill="var(--fill-0, #FF6B35)"/>
<path id="Vector_49" d="M248.213 195.93C248.444 197.481 248.791 198.772 248.354 200.241L247.911 200.459C247.005 199.919 246.88 199.121 246.495 198.08C246.953 196.798 247.586 197.043 248.213 195.93Z" fill="var(--fill-0, #FF6B35)"/>
<path id="Vector_50" d="M256.983 272.246C256.671 267.075 250.575 239.854 251.931 236.306L252.382 236.141C254.737 237.459 255.439 247.222 255.791 249.991C256.484 255.535 257.233 261.072 258.038 266.6C258.234 267.966 258.476 271.126 259.265 272.13C258.594 272.911 259.003 272.695 258.024 272.846C257.513 272.599 257.408 272.601 256.983 272.246Z" fill="var(--fill-0, #FF6B35)"/>
<path id="Vector_51" d="M106.512 219.998C107.353 217.123 106.143 214.487 106.296 211.537L106.558 211.619C106.868 212.346 107.999 220.378 108.243 221.693L108.528 221.791L108.744 221.314C109.041 222.518 111.39 241.058 111.345 241.449C111.905 244.855 113.761 254.598 113.067 257.372L112.706 257.538C110.818 255.344 110.458 248.491 109.98 245.119C109.486 237.977 106.541 226.082 106.512 219.998Z" fill="var(--fill-0, #FF6B35)"/>
<path id="Vector_52" d="M109.98 245.119C110.198 244.126 110.188 243.189 110.227 242.173C110.459 243.37 110.676 244.314 110.982 245.491C111.058 243.997 111.141 242.933 111.345 241.449C111.905 244.855 113.761 254.598 113.067 257.372L112.706 257.538C110.818 255.344 110.458 248.491 109.98 245.119Z" fill="var(--fill-0, #FF6B35)"/>
<path id="Vector_53" d="M181.688 198.987C182.912 203.57 183.599 210.881 184.305 215.722C185.024 220.641 187.836 233.691 186.467 237.995L186.135 237.92C184.826 234.161 184.094 227.632 183.485 223.502C182.43 215.998 181.281 208.507 180.039 201.032C180.811 199.776 180.946 200.83 181.688 198.987Z" fill="var(--fill-0, #FF6B35)"/>
<path id="Vector_54" d="M99.4232 171.233C101.585 171.211 107.333 170.902 109.072 171.771L109.265 172.356C106.991 174.805 95.3038 174.134 90.6099 174.801C88.0588 174.899 83.1041 175.435 81.1326 174.023L81.2107 173.595C83.1784 172.425 96.3776 171.475 99.4232 171.233Z" fill="var(--fill-0, #FF6B35)"/>
<path id="Vector_55" d="M160.426 143.063C163.94 142.967 171.094 142.229 173.631 144.283L173.43 145.104C171.315 146.313 167.975 146.348 165.663 146.376C162.505 146.475 154.171 146.819 151.856 145.089L151.913 144.602C154.173 143.206 157.767 143.198 160.426 143.063Z" fill="var(--fill-0, #FF6B35)"/>
<path id="Vector_56" d="M217.86 198.433C219.025 198.164 220.193 197.905 221.363 197.654C221.446 197.826 222.302 199.353 222.272 199.275C220.318 199.848 219.059 200.017 217.026 200.309C215.004 200.88 212.15 201.447 210.716 202.864C210.888 204.417 211.069 205.919 211.145 207.481L210.511 206.89C209.745 207.191 209.977 207.135 209.491 208.117C209.29 206.841 209.161 205.165 209.021 203.85C205.829 205.765 201.995 211.316 199.68 212.992L198.076 211.885C205.821 205.438 206.084 199.695 217.86 198.433Z" fill="var(--fill-0, #FF6B35)"/>
<path id="Vector_57" d="M219.492 278.062C218.537 273.977 215.005 250.94 215.805 247.59L216.182 247.655C217.549 250.205 221.489 275.565 220.935 278.03L219.492 278.062Z" fill="var(--fill-0, #FF6B35)"/>
<path id="Vector_58" d="M267.912 245.306C268.495 247.712 268.366 249.704 268.726 251.831C269.524 256.55 270.304 266.234 271.621 270.375C270.94 271.344 271.39 271.016 270.179 271.326C269.096 270.989 269.458 271.3 268.855 270.59C269.035 269.212 266.385 250.936 265.962 248.854C267.589 247.658 267.567 247.244 267.912 245.306Z" fill="var(--fill-0, #FF6B35)"/>
<path id="Vector_59" d="M256.869 183.492C257.944 182.804 256.58 183.19 257.568 182.317C257.731 183.112 257.862 183.981 258.199 184.71L258.348 183.845C258.812 184.776 260.87 196.641 260.788 197.655C261.203 199.991 262.636 206.345 261.342 208.21C260.527 208.147 260.787 208.168 260.043 207.4C259.605 206.063 259.331 204.173 259.409 202.773C258.936 199.886 256.739 185.947 256.869 183.492Z" fill="var(--fill-0, #FF6B35)"/>
<path id="Vector_60" d="M259.409 202.773C259.829 200.945 259.068 199.077 260.236 197.639L260.788 197.655C261.203 199.991 262.636 206.345 261.342 208.21C260.527 208.147 260.787 208.168 260.043 207.4C259.605 206.063 259.331 204.173 259.409 202.773Z" fill="var(--fill-0, #FF6B35)"/>
<path id="Vector_61" d="M140.094 183.686C140.246 184.112 140.868 185.951 141.023 186.244C142.092 191.864 143.784 202.209 144.317 207.722C143.737 208.672 143.656 209.313 142.511 209.58C141.965 203.681 137.944 188.12 140.094 183.686Z" fill="var(--fill-0, #FF6B35)"/>
<path id="Vector_62" d="M205.989 280.243C205.283 277.258 203.263 259.931 203.887 257.255L204.28 257.015C206.554 259.497 207.607 276.253 207.407 280.042L205.989 280.243Z" fill="var(--fill-0, #FF6B35)"/>
<path id="Vector_63" d="M142.511 209.58C143.656 209.313 143.737 208.672 144.317 207.722C145.071 210.638 147.676 228.218 146.705 230.538C145.828 230.627 146.148 230.644 145.229 229.91C144.366 223.846 143.077 215.51 142.511 209.58Z" fill="var(--fill-0, #FF6B35)"/>
<path id="Vector_64" d="M145.229 229.91C145.39 228.72 145.197 228.501 145.86 227.826C146.664 228.609 146.653 229.421 146.705 230.538C145.828 230.627 146.148 230.644 145.229 229.91Z" fill="var(--fill-0, #FF6B35)"/>
<path id="Vector_65" d="M102.922 378.412L104.709 377.973C108.207 382.053 119.212 387.703 124.141 384.519C124.869 385.293 124.746 384.872 124.785 385.723C123.127 385.998 121.972 386.047 120.63 387.05C119.402 387.006 118.178 386.892 116.964 386.709C111.601 385.896 106.189 382.759 102.922 378.412Z" fill="var(--fill-0, #FF6B35)"/>
<path id="Vector_66" d="M90.9214 158.503C91.9448 158.417 94.1251 158.449 95.0038 158.952L95.0592 159.427C92.6224 161.716 86.2592 161.795 83.1399 161.805C81.4912 161.683 80.1606 161.799 79.0622 160.607L79.2025 160.132C81.0582 159.101 88.1454 158.825 90.9214 158.503Z" fill="var(--fill-0, #FF6B35)"/>
<path id="Vector_67" d="M135.381 379.325C139.613 374.502 140.054 369.988 141.283 363.98C141.412 363.349 141.792 363.41 142.269 363.358C145.695 366.059 140.016 377.472 137.224 379.671L135.381 379.325Z" fill="var(--fill-0, #FF6B35)"/>
<path id="Vector_68" d="M127.721 169.394C129.325 169.185 130.347 169.044 131.812 169.708L131.826 170.084C129.344 172.499 123.257 172.381 120.069 172.278C118.542 172.181 117.507 172.225 116.161 171.462L116.039 170.945C117.91 169.696 125.061 169.631 127.721 169.394Z" fill="var(--fill-0, #FF6B35)"/>
<path id="Vector_69" d="M178.798 180.917C179.274 183.102 179.858 188.671 180.409 190.197C181.321 193.306 181.268 195.866 181.688 198.987C180.946 200.83 180.811 199.776 180.039 201.032C179.746 200.043 179.073 194.396 178.899 193.129L177.26 182.766L177.92 183.201L178.399 182.937L178.798 180.917Z" fill="var(--fill-0, #FF6B35)"/>
<path id="Vector_70" d="M140.712 271.533L141.574 271.669C142.609 273.475 144.222 287.115 143.948 289.395L142.737 289.381C141.563 286.62 140.841 277.362 140.256 273.813C140.603 273.104 140.62 272.329 140.712 271.533Z" fill="var(--fill-0, #FF6B35)"/>
<path id="Vector_71" d="M171.203 168.218C172.778 167.79 174.775 167.83 176.342 168.316C177.425 169.326 178.698 178.911 178.798 180.917L178.399 182.937L177.92 183.201L177.26 182.766C177.113 180.262 176.295 171.915 175.182 169.996C174.372 169.475 173.572 169.669 172.591 169.745C171.462 169.363 170.757 169.494 170.297 168.85L171.203 168.218Z" fill="var(--fill-0, #FF6B35)"/>
<path id="Vector_72" d="M198.076 211.885L199.68 212.992C198.109 216.306 202.699 227.286 199.477 227.979C199.13 227.463 198.952 226.782 198.75 226.182C198.313 221.426 196.22 216.206 198.076 211.885Z" fill="var(--fill-0, #FF6B35)"/>
<path id="Vector_73" d="M198.75 226.182C198.906 224.873 198.685 224.852 199.392 224.035L199.81 224.224C200.387 225.771 200.178 226.508 199.477 227.979C199.13 227.463 198.952 226.782 198.75 226.182Z" fill="var(--fill-0, #FF6B35)"/>
<path id="Vector_74" d="M275.251 176.331C276.743 176.103 282.774 174.991 283.816 175.438C284.983 177.384 285.682 181.667 284.343 183.594L283.708 183.801C281.725 182.302 284.301 176.634 278.609 177.714C276.842 177.574 277.283 176.902 275.251 176.331Z" fill="var(--fill-0, #FF6B35)"/>
<path id="Vector_75" d="M150.125 265.636C151.143 266.014 151.867 266.284 152.286 267.345C153.457 270.317 153.959 276.52 153.832 279.602C153.334 279.09 153.238 278.847 152.982 278.207L153.095 278.833C152.445 279.221 152.632 279.163 152.261 280.015C151.805 278.575 151.244 273.322 150.868 271.299L150.809 270.807C150.689 268.867 149.929 267.478 150.125 265.636Z" fill="var(--fill-0, #FF6B35)"/>
<path id="Vector_76" d="M221.363 197.654C224.508 197.097 231.525 195.17 234.033 196.823C234.699 197.256 235.157 197.94 235.301 198.717C235.454 199.582 235.532 200.547 235.139 201.336L234.713 201.514C234.079 200.297 233.526 198.637 232.478 198.066C229.619 197.74 225.205 198.752 222.272 199.275C222.302 199.353 221.446 197.826 221.363 197.654Z" fill="var(--fill-0, #FF6B35)"/>
<path id="Vector_77" d="M192.672 282.046C191.289 279.439 189.398 269.35 190.621 266.951L191.059 267.177C192.494 269.812 193.555 278.789 193.797 282.011L192.672 282.046Z" fill="var(--fill-0, #FF6B35)"/>
<path id="Vector_78" d="M292.981 256.599C293.235 255.268 292.651 254.682 294.071 253.977L294.392 252.845C295.217 258.021 295.762 261.112 295.771 266.331L294.289 266.484C293.972 263.214 293.217 259.9 292.981 256.599Z" fill="var(--fill-0, #FF6B35)"/>
<path id="Vector_79" d="M167.809 285.708C166.636 283.817 164.713 276.533 166.442 274.843L167.015 275.038C168.444 277.229 169.104 282.978 169.023 285.611L167.809 285.708Z" fill="var(--fill-0, #FF6B35)"/>
<path id="Vector_80" d="M209.491 208.117C209.977 207.135 209.745 207.191 210.511 206.89L211.145 207.481C211.68 210.478 212.667 214.37 211.987 217.271L211.554 217.786C210.018 216.709 209.473 210.086 209.491 208.117Z" fill="var(--fill-0, #FF6B35)"/>
<path id="Vector_81" d="M80.1522 361.978L80.9452 362.043L81.1211 362.547C80.0021 364.747 75.5329 367.686 73.3893 368.889L72.7155 368.71L72.5707 368.181C73.3059 366.43 78.3737 363.021 80.1522 361.978Z" fill="var(--fill-0, #FF6B35)"/>
<path id="Vector_82" d="M265.962 248.854C265.575 245.348 265.453 244.104 265.779 240.625L266.442 240.407L265.823 240.426L266.432 240.283C267.501 242.107 267.484 243.219 267.912 245.306C267.567 247.244 267.589 247.658 265.962 248.854Z" fill="var(--fill-0, #FF6B35)"/>
<path id="Vector_83" d="M100.48 369.607C101.546 373.106 102.646 374.963 104.709 377.973L102.922 378.412C101.439 376.052 100.282 374.319 99.6159 371.618C100.022 370.975 100.208 370.328 100.48 369.607Z" fill="var(--fill-0, #FF6B35)"/>
<path id="Vector_84" d="M152.261 280.015C152.632 279.163 152.445 279.221 153.095 278.833L152.982 278.207C153.238 278.847 153.334 279.09 153.832 279.602C154.235 282.533 154.518 284.978 154.299 287.943L153.638 288.018C152.968 286.414 152.494 281.959 152.261 280.015Z" fill="var(--fill-0, #FF6B35)"/>
<path id="Vector_85" d="M92.2159 294.288L92.8814 294.934C94.9789 294.896 96.7963 294.272 98.4026 294.242C99.7366 295.001 101.463 294.786 103.112 294.806C101.139 295.431 93.271 296.67 91.7192 295.47L91.6342 294.485L91.8869 294.628L92.2159 294.288Z" fill="var(--fill-0, #E5EDEA)" fill-opacity="0.317647"/>
<path id="Vector_86" d="M98.6049 365.941C98.9184 365.233 98.8847 365.226 99.4089 364.67L100.049 365.069C100.111 366.136 100.192 368.738 100.48 369.607C100.208 370.328 100.022 370.975 99.6159 371.618C98.9747 369.502 98.7752 368.122 98.6049 365.941Z" fill="var(--fill-0, #FF6B35)"/>
</g>
</svg>
