<svg preserveAspectRatio="none" width="100%" height="100%" overflow="visible" style="display: block;" viewBox="0 0 503.115 505.789" fill="none" xmlns="http://www.w3.org/2000/svg">
<g id="House 2 [Vectorized]">
<path id="Vector" d="M201.822 144.486C207.051 138.401 213.713 132.808 219.164 126.835C228.02 117.187 237.466 108.07 246.759 98.8523C248.968 96.6607 251.09 97.953 252.946 99.8244C265.173 112.156 277.628 124.431 288.981 137.593C290.073 138.858 291.309 140.332 292.271 141.677C294.906 138.704 324.405 108.976 326.874 107.847C329.584 107.81 332.197 111.104 334.254 113.117L384.348 162.731C387.137 165.533 398.335 176.162 399.728 178.588C402.287 181.208 402.787 185.103 402.718 188.653C402.583 195.659 403.79 204.259 403.042 211.103C399.174 211.538 388.581 211.772 384.697 211.414C386.084 228.789 386.071 248.352 386.122 265.857C386.273 283.168 386.332 300.481 386.304 317.794L386.342 355.494C386.336 359.761 386.6 368.445 386.307 372.409C396.52 372.368 406.731 372.378 416.944 372.441C420.56 372.498 446.945 373.803 448.954 373.073L450.907 373.294C453.272 373.465 463.463 373.531 464.413 375.324C462.488 377.556 454.149 376.87 451.033 376.898L429.6 377.002C406.12 376.866 382.644 376.958 359.167 377.281C348.221 377.518 336.018 377.217 324.981 377.221L250.865 377.24C230.611 377.233 42.4094 378.046 39.176 374.935L39.3319 374.726C42.3038 373.035 108.52 373.364 117.355 373.465C117.027 366.337 117.237 356.98 117.24 349.715L117.278 308.383C112.107 305.035 106.577 303.073 100.377 304.198C92.3775 305.656 86.2609 312.19 85.299 320.307C84.8522 324.277 85.5053 328.061 85.7889 332.028C85.6518 332.224 85.515 332.42 85.3783 332.616C82.3791 332.382 81.4895 325.333 81.4329 322.946C68.8758 328.87 70.9474 336.817 75.4996 347.379C74.455 347.42 73.2384 347.395 72.2303 347.613C64.9317 349.225 59.5603 355.475 59.0352 362.967C58.794 366.248 59.9788 370.772 58.8742 372.453C52.1601 371.657 53.3402 347.667 70.2785 345.008C69.4949 343.791 68.7324 342.065 68.3651 340.665C67.2048 336.23 67.845 331.51 70.1452 327.549C72.9821 322.763 76.3631 321.41 81.3552 320.142C84.6129 302.3 102.293 293.976 117.264 304.686C117.882 279.654 116.618 253.869 117.988 228.701C118.26 223.698 118.028 218.188 118.502 213.278C114.354 213.333 99.5903 214.469 96.9905 212.199C96.7166 211.561 96.5361 211.273 96.6553 210.562C97.0486 208.214 109.275 196.481 111.707 194.781C115.736 194.729 129.752 194.046 132.596 194.519C134.828 195.31 151.25 194.634 154.047 193.986C155.25 193.099 157.902 190.179 159.06 188.997L171.787 175.854L192.169 155.072C194.046 153.17 201.403 146.495 201.822 144.486ZM249.192 190.97C249.121 196.593 249.097 202.216 249.118 207.839C254.492 207.6 260 207.679 265.382 207.771C265.699 201.203 265.074 193.816 265.748 187.349C268.941 183.25 274.356 178.354 278.168 174.53L299.435 153.185C304.552 148.131 309.638 143.044 314.692 137.925C317.28 135.281 324.575 126.718 327.924 126.421C330.153 127.111 371.5 168.875 375.173 172.851C378.452 175.845 385.068 180.858 384.751 185.384C384.232 192.74 385.031 200.952 384.465 208.205C390.137 207.701 394.91 208.614 400.451 208.533C400.737 200.6 401.196 192.308 401.262 184.374C401.287 181.236 399.97 180.32 397.791 178.356C390.364 171.812 382.402 163.952 375.078 157.089L327.465 111.961C323.996 114.66 315.318 123.948 311.731 127.549L276.255 163.353L259.343 180.214C256.666 182.874 251.086 188.124 249.192 190.97ZM269.411 189.183C268.874 193.791 270.434 208.891 268.756 211.333C267.669 212.016 266.291 211.825 264.771 212.102C264.311 212.881 264.912 227.223 264.946 229.33L265.457 277.104C265.558 286.067 265.985 293.919 265.751 303.029C271.847 302.123 276.327 302.698 281.903 302.113C281.347 299.975 281.546 292.635 281.546 290.082L281.541 270.107L281.534 240.533C281.543 235.866 281.397 228.148 281.836 223.616C282.034 221.617 282.667 219.686 283.692 217.962C287.748 211.278 298.655 212.782 305.496 212.762C315.459 212.733 325.424 212.757 335.386 212.833C344.049 212.88 352.731 212.483 361.375 212.948C363.057 213.033 364.274 213.489 365.68 214.413C371.459 218.211 371.17 223.656 371.264 229.829C371.399 238.742 371.097 247.593 371.113 256.473L371.245 287.056C371.233 291.415 371.456 297.695 370.931 301.838C374.515 302.228 378.484 302.036 382.216 302.284C382.116 294.337 382.458 284.959 382.471 276.811C382.345 261.515 382.421 246.217 382.701 230.923C382.76 228.52 383.562 212.271 383.204 211.582L381.697 211.309C380.578 210.086 381.065 199.299 381.028 197.151C380.943 192.511 380.71 187.88 380.468 183.248C377.245 179.885 373.157 176.217 369.764 172.862L340.857 144.187C338.112 141.427 329.578 133.179 327.808 130.653C324.798 133.021 320.638 137.461 317.811 140.305L301.732 156.499L280.83 177.516C277.362 181.002 272.555 185.557 269.411 189.183ZM382.238 371.647C382.16 353.411 381.603 332.929 382.402 314.839L308.255 315.025C295.024 315.057 279.227 315.489 266.231 315.021C265.238 316.987 266.324 365.331 265.777 372.359C272.789 371.749 284.616 372.106 291.954 372.093L352.209 372.052L371.623 372.065C373.226 372.065 381.603 372.371 382.238 371.647ZM327.433 240.193C332.452 239.669 356.68 240.679 359.221 238.769L358.821 238.359C353.913 236.55 307.218 237.583 298.999 237.534C297.051 237.522 293.379 238.15 291.336 238.724C300.646 241.194 315.579 239.532 325.336 240.127L327.433 240.193ZM133.739 302.673C137.531 302.2 142.123 302.026 145.974 301.8C145.936 301.452 145.914 301.125 145.914 300.772C145.938 283.389 145.834 265.84 146.023 248.473C146.127 239.005 150.702 234.77 159.996 234.826C165.286 234.857 171.313 234.812 176.58 234.631C194.642 234.014 192.542 246.216 192.505 259.274C192.44 268.356 192.437 277.438 192.495 286.52C194.902 289.119 196.028 290.872 197.002 294.351C196.02 299.158 195.673 299.988 191.547 302.748C192.123 303.544 193.408 305.292 193.509 306.155C194.704 316.317 194.315 331.014 194.032 341.167C196.636 340.516 200.391 340.323 203.169 340.051C202.904 318.119 203.118 295.524 203.143 273.549C203.153 267.876 203.129 262.203 203.071 256.53C202.875 244.169 200.989 231.594 217.904 231.621C227.61 231.994 237.538 231.004 247.174 232.116C249.185 232.348 251.323 233.412 252.858 234.766C257.785 239.112 257.058 246.057 257.241 252.139C257.439 258.683 257.17 265.754 257.246 272.338C256.905 278.803 256.948 284.996 256.854 291.427C256.616 307.59 257.27 323.986 256.47 340.118L261.531 340.902C262.873 297.989 260.773 254.985 262.975 211.879C260.544 212.157 256.197 212.083 253.512 212.226C245.781 212.64 238.086 212.765 230.35 212.85L179.578 213.282L149.682 213.327C144.994 213.33 137.464 213.559 133.093 213.033C133.345 218.262 133.183 224.337 133.228 229.637C133.372 242.181 133.415 254.727 133.356 267.272C133.357 278.571 134.07 291.849 133.739 302.673ZM156.226 193.884C172.183 193.979 187.833 193.655 203.813 194.195C217.084 194.643 232.095 195.685 245.255 195.682C245.111 190.384 245.033 189.129 248.668 185.043C251.156 182.246 259.926 174.695 261.413 171.985L261.574 171.771C263.368 170.743 269.132 164.642 270.957 162.858C277.843 156.131 284.596 148.801 291.585 142.205C282.654 135.114 277.345 129.275 269.387 121.631C265.063 117.489 260.8 113.284 256.6 109.016C254.551 106.961 251.401 103.966 249.661 101.801C246.907 103.882 243.36 107.716 240.811 110.277L226.578 124.576L186.838 164.427C177.212 174.107 166.644 185.164 156.226 193.884ZM242.623 300.043C243.847 299.63 244.755 298.587 244.999 297.313C245.244 296.039 244.787 294.732 243.805 293.891C242.822 293.05 241.465 292.806 240.253 293.252C238.414 293.928 237.458 295.965 238.106 297.822C238.754 299.68 240.767 300.669 242.623 300.043ZM245.355 208.603C245.361 206.813 245.636 199.033 244.862 198.092L244.329 198.058L155.545 198.436C141.826 198.461 127.014 198.887 113.42 198.648C111.232 200.365 105.533 206.149 103.627 208.289L103.559 208.864L104.014 209.01C151.128 209.179 198.243 209.043 245.355 208.603ZM194.527 343.276C196.515 344.983 197.417 345.931 197.638 348.751C197.704 349.636 197.74 350.524 197.745 351.416C203.23 351.536 261.452 351.615 261.752 351.46L261.704 343.573C256.234 344.36 246.924 344.139 241.131 344.167C229.313 344.224 217.415 344.12 205.592 344.129C201.786 344.132 197.684 343.326 194.527 343.276ZM183.216 286.559C184.917 285.902 187.095 285.505 188.921 285.489L188.877 285.11C188.531 281.943 188.658 277.087 188.651 273.767L188.638 255.061C188.657 248.74 190.206 239.979 181.482 239.049C178.162 238.715 174.27 238.82 170.96 238.922C165.271 239.098 155.69 236.969 151.758 242.053C149.616 244.821 150.261 254.406 150.265 258.05L150.333 288.427C150.342 291.175 150.617 299.685 150.364 301.936C152.272 301.923 154.179 301.879 156.085 301.802C155.71 299.672 155.913 290.809 155.916 288.082L155.893 260.787C155.991 247.666 156.721 242.607 171.365 242.712C185.254 242.811 183.993 255.505 183.419 265.852C183.588 271.421 183.681 281.151 183.216 286.559ZM192.853 351.093C195.036 345.884 191.186 346.826 187.401 346.737C169.728 346.323 151.87 346.759 134.217 346.405L134.292 351.647C147.402 351.087 161.515 351.694 174.664 351.384C178.901 351.286 189.083 351.874 192.853 351.093ZM143.872 306.117C142.735 306.696 142.095 307.656 142.229 308.918C142.844 314.716 140.805 337.997 142.235 342.258C143.338 342.836 144.322 342.761 145.585 342.827C146.23 342.435 146.952 342.135 147.034 341.256C147.181 339.682 147.38 336.176 147.188 334.734C146.609 330.381 147.742 308.828 146.334 306.763C145.343 306.155 145.076 306.217 143.872 306.117ZM131.003 213.332C127.533 213.345 123.923 213.481 120.497 212.996C120.926 222.712 120.456 232.909 120.634 242.605C120.959 260.258 120.572 278.073 120.838 295.683L121.198 345.34C121.288 352.984 122.156 365.249 121.441 372.621C124.294 372.393 126.634 372.425 129.487 372.453C130.265 371.211 129.79 270.534 129.886 260.749C129.929 256.392 130.217 252.044 130.273 247.69C130.419 236.249 130.373 224.76 131.003 213.332ZM156.032 342.35C155.945 340.639 155.944 338.711 155.965 336.998C156.091 326.986 155.774 316.858 156.086 306.859C155.09 306.069 152.465 306.218 150.989 306.165C151.417 315.917 151.19 326.718 150.983 336.517C150.949 338.164 149.809 341.98 150.452 342.606C152.314 342.827 154.198 342.738 156.032 342.35ZM138.887 343.175L139.178 342.681L139.062 342.28C137.534 336.941 137.726 312.276 138.422 305.957L133.662 305.166C134.115 310.275 133.753 318.694 133.808 324.103C133.868 330.075 134.164 337.949 133.841 343.785L138.887 343.175ZM162.789 264.266C161.592 264.188 161.074 264.056 159.977 264.502L159.804 264.963C160.813 265.703 161.545 265.619 162.858 265.562C164.711 265.768 166.704 265.747 168.579 265.768C168.196 274.121 168.237 281.607 168.418 289.983C168.471 292.401 168.75 299.725 168.565 301.817L171.152 301.929L171.022 265.837C174.17 266.035 179.449 266.829 181.918 265.179L181.103 264.335C178.833 263.455 173.57 263.921 171.102 264.277C171.092 261.308 171.474 245.74 169.569 244.661C168.094 247.416 168.399 260.441 168.549 264.138C166.899 264.061 164.493 264.211 162.789 264.266ZM187.133 342.226C188.247 341.939 189.096 341.891 189.756 341.019C190.27 337.823 190.318 309.465 189.545 306.838C188.597 306.009 187.192 306.161 185.969 306.245C184.636 308.766 185.018 317.91 185.044 321.214C185.098 327.824 184.588 333.198 183.667 339.745C184.243 341.414 185.599 341.657 187.133 342.226ZM261.08 353.588C242.677 354.587 224.148 353.935 205.723 354.014C203.079 354.024 200.503 353.967 197.863 353.777C197.816 355.51 197.494 360.703 198.023 361.86L198.673 361.952C202.215 361.611 206.088 361.661 209.667 361.687C225.936 361.81 242.221 361.364 258.484 361.769C259.494 361.794 260.697 362.104 261.658 362.414C261.687 359.995 261.845 356.189 261.589 353.891L261.257 353.578L261.08 353.588ZM163.809 306.261C161.955 312.381 164.061 324.786 162.845 331.564C162.437 333.836 161.464 338.224 161.907 340.399C162.131 341.496 164.379 342.087 165.372 342.312C166.465 342.011 166.959 342.014 167.629 341.183C168.167 338.139 168.273 308.544 167.482 306.977C166.287 306.212 165.254 306.28 163.809 306.261ZM381.748 311.128C382.701 310.017 382.373 307.549 382.336 305.931C355.828 306.271 329.15 305.881 302.619 306.024L276.632 306.286C274.198 306.286 267.917 306.424 265.844 305.958C265.864 307.655 265.773 310.292 266.251 311.82C268.517 311.909 271.897 311.447 274.431 311.408L299.952 311.133L381.748 311.128ZM197.65 364.13C197.654 366.95 197.963 370.057 196.855 372.58L197.026 372.953C205.17 373.282 213.458 372.782 221.615 372.966C234.74 373.263 248.114 372.64 261.22 372.978C262.01 371.799 261.725 365.872 261.712 364.076C249.409 364.329 237.102 364.392 224.796 364.26C215.793 364.241 206.623 364.402 197.65 364.13ZM291.977 302.198C290.909 290.456 291.529 271.193 291.508 258.981L291.478 241.515C291.472 237.576 291.416 233.489 291.825 229.573C292.189 226.085 296.71 222.73 300.048 222.523C308.065 222.025 316.204 222.281 324.248 222.263C330.386 222.201 336.524 222.189 342.665 222.227C349.536 222.259 359.944 221.001 361.041 230.668C361.576 235.377 361.29 241.208 361.287 246.027L361.148 274.848C361.117 281.308 361.749 296.212 360.843 301.852C362.743 301.865 365.475 301.967 367.308 301.84L367.324 249.298C367.315 240.833 367.535 232.224 367.01 223.793C366.591 219.823 364.007 217.529 360.202 217.448C338.247 216.986 316.271 217.346 294.308 217.202C290.177 217.175 286.321 218.812 285.887 223.52C285.387 228.938 285.532 234.717 285.5 240.189L285.522 281.483C285.531 286.032 285.817 298.098 285.242 302.197C287.493 302.141 289.73 302.045 291.977 302.198ZM188.569 300.512C194.415 297.616 193.93 289.335 186.27 289.911C184.724 290.638 183.685 291.159 182.987 292.891C182.428 294.285 182.443 295.846 183.028 297.23C184.014 299.543 186.144 300.633 188.569 300.512ZM134.257 354.846C134.258 358.193 133.955 371.199 135.061 371.572C139.23 372.985 165.812 372.305 171.235 372.384C180.291 372.517 182.89 372.561 191.253 372.036C191.786 371.986 192.433 371.594 192.871 371.274C194.269 367.465 193.774 359.312 193.738 355.029C186.937 355.92 172.788 355.627 165.459 355.582C157.65 355.532 141.369 355.933 134.257 354.846ZM206.343 340.004C208.491 340.209 210.688 340.339 212.819 339.881C212.201 336.855 212.55 329.104 212.552 325.829L212.591 299.264L212.538 268.201C212.502 258.832 209.497 239.558 223.287 240.265C229.509 240.583 240.213 238.504 245.042 242.891C248.899 246.396 247.943 253.411 247.921 258.37L247.857 276.354C247.849 283.767 248.233 291.223 248.075 298.613C247.781 312.348 247.874 326.051 248.119 339.786C249.623 339.814 252.011 339.792 253.425 339.982C252.233 325.039 254.681 246.061 251.621 239.688C250.954 238.3 249.297 237.239 247.898 236.753C245.111 235.785 219.291 235.8 215.176 236.144C213.825 236.257 212.254 236.516 211.063 237.182C209.644 237.976 208.04 239.891 207.676 241.468C206.673 245.819 207.405 255.404 207.391 260.353C207.351 273.489 206.882 286.616 206.867 299.744L206.881 325.513C206.882 328.949 207.23 337.029 206.343 340.004Z" fill="var(--fill-0, white)"/>
<path id="Vector_2" d="M375.173 172.851C378.452 175.845 385.068 180.858 384.751 185.384C384.232 192.74 385.031 200.952 384.465 208.205C390.137 207.701 394.911 208.614 400.451 208.533C400.737 200.6 401.196 192.308 401.262 184.374C401.287 181.236 399.97 180.32 397.791 178.356C399.954 177.994 397.879 179.035 399.728 178.588C402.287 181.208 402.787 185.103 402.718 188.653C402.583 195.659 403.79 204.259 403.042 211.103C399.174 211.538 388.581 211.772 384.697 211.414L384.402 211.235C384.98 210.981 401.265 210.55 402.077 210.769C402.948 209.235 402.454 191.715 402.074 189.315C401.379 193.822 401.42 206.247 400.674 208.475C399.045 209.302 386.725 208.694 383.939 208.638C383.933 200.888 384.021 193.185 384.156 185.446C384.248 180.333 378.1 177.07 374.915 173.283L375.173 172.851Z" fill="var(--fill-0, white)"/>
<path id="Vector_3" d="M319.138 159.771C323.336 159.443 332.182 159.424 336.294 159.936C337.835 160.127 340.348 160.611 341.253 161.981C343.105 164.788 342.621 186.822 342.024 191.322L341.778 191.623C339.461 194.426 337.914 194.354 334.42 194.672C327.647 194.813 318.258 195.569 312.196 193.134C311.903 192.547 311.071 190.858 310.993 190.317C309.989 183.339 309.694 169.02 311.553 162.469C314.268 159.851 315.588 159.925 319.138 159.771ZM327.704 179.781L327.537 178.582C329.984 178.594 333.251 178.757 335.556 178.3C337.285 178.307 339.904 178.545 341.212 177.351L340.995 176.905C339.769 176.363 339.118 176.427 337.788 176.366C335.565 175.917 329.918 176.126 327.625 176.285C327.735 175.042 327.676 174.013 327.638 172.774C327.666 170.802 327.773 163.294 326.49 162.112C324.824 163.598 325.132 171.551 325.003 174.05C325.113 175.245 325.355 176.093 324.786 177.093C322.185 176.862 314.023 176.09 312.07 176.701L311.654 177.13C311.816 177.509 311.937 178.046 312.43 178.091C314.095 178.245 317.182 178.365 318.748 178.324C320.799 178.399 324.16 177.974 325.273 179.12L325.1 180.213C325.151 183.113 324.761 189.712 325.666 191.992C326.672 192.28 326.232 192.355 327.05 191.912C328.26 189.451 327.782 182.859 327.704 179.781Z" fill="var(--fill-0, #FF6B35)"/>
<path id="Vector_4" d="M325.003 174.05C325.349 174.762 326.037 175.122 326.795 175.063C327.679 174.194 327.402 174.315 327.638 172.774C327.675 174.013 327.735 175.042 327.625 176.285C326.553 176.871 326.93 176.47 326.352 177.427C326.628 178.485 326.364 178.026 327.276 178.783L327.537 178.582L327.704 179.781C326.459 179.45 326.471 179.706 325.1 180.213L325.273 179.12C324.16 177.974 320.799 178.399 318.748 178.324C318.013 178.095 317.415 178.072 317.057 177.577C319.289 176.943 323.044 177.87 324.786 177.093C325.355 176.093 325.113 175.244 325.003 174.05Z" fill="var(--fill-0, #FF6B35)"/>
<path id="Vector_5" d="M318.748 178.325C317.182 178.366 314.095 178.246 312.43 178.092C311.937 178.046 311.816 177.51 311.654 177.13L312.07 176.701C314.023 176.09 322.185 176.863 324.786 177.093C323.044 177.87 319.289 176.943 317.057 177.578C317.415 178.073 318.013 178.095 318.748 178.325Z" fill="var(--fill-0, #F1F9F9)" fill-opacity="0.501961"/>
<path id="Vector_6" d="M327.625 176.285C329.918 176.126 335.565 175.917 337.788 176.366C335.571 176.487 330.345 176.117 328.914 177.106C329.553 178.942 333.792 178.124 335.556 178.3C333.251 178.757 329.984 178.594 327.537 178.582L327.276 178.783C326.364 178.026 326.628 178.485 326.352 177.427C326.93 176.47 326.553 176.871 327.625 176.285Z" fill="var(--fill-0, #F1F9F9)" fill-opacity="0.239216"/>
<path id="Vector_7" d="M314.654 203.718C319.384 203.504 328.858 203.547 333.637 203.626C344.426 203.805 362.997 202.772 372.723 206.004C366.34 208.664 346.533 207.896 338.738 207.89C329.842 207.912 286.682 209.308 281.595 205.977C281.284 205.773 281.419 205.9 281.318 205.393C285.406 203.321 308.686 204.133 314.654 203.718Z" fill="var(--fill-0, #FF6B35)"/>
<path id="Vector_8" d="M362.796 316.143C365.959 317.266 364.664 320.923 364.079 323.569C366.079 323.901 368.393 324.059 369.972 325.292L369.827 325.706C367.283 326.724 357.224 326.205 353.633 326.326C353.793 328.662 353.872 330.606 353.558 332.926C357.117 332.913 378.053 331.826 379.446 334.485C378.053 335.698 370.145 335.493 367.824 335.398C363.566 335.136 349.448 336.236 346.973 334.251L347.269 333.805C348.621 333.106 350.058 333.173 351.589 333.094L351.633 326.202C349.067 326.234 340.077 326.828 338.417 325.254L338.662 324.77C341.778 323.424 357.583 323.705 361.677 323.73C361.328 321.287 360.699 317.866 362.796 316.143Z" fill="var(--fill-0, #FF6B35)"/>
<path id="Vector_9" d="M358.391 349.604C353.834 349.794 337.087 350.294 333.719 348.501L333.625 348.065C336.543 346.194 360.878 346.513 365.161 347.458C365.525 347.54 365.834 347.667 366.161 347.847L366.136 348.296C364.384 349.39 362.727 349.497 360.711 349.788C361.123 351.789 361.007 353.657 360.935 355.696C363.57 355.753 373.195 355.481 374.66 357.473C372.207 360.223 353.919 357.267 350.596 359.154C350.344 359.208 348.655 358.933 348.294 358.879L348.023 358.819C346.209 358.44 343.451 358.598 342.442 357.296C343.168 356.417 345.451 356.268 346.612 356.158C350.662 355.775 354.727 355.604 358.793 355.639C358.494 353.332 358.422 351.937 358.391 349.604Z" fill="var(--fill-0, #FF6B35)"/>
<path id="Vector_10" d="M301.31 329.882C301.297 327.195 301.041 325.314 302.206 322.861L302.746 322.529C304.358 323.822 304.094 327.83 304.145 329.885C305.907 330.056 307.919 330.122 309.489 330.881L309.796 331.323C307.91 332.762 296.336 332.588 293.318 332.642C293.543 334.238 293.916 336.884 293.415 338.452C292.395 338.196 292.734 338.265 291.587 338.635C291.486 336.438 291.454 334.722 291.523 332.525C287.242 332.733 282.423 333.119 278.305 331.905L277.814 331.295L277.972 330.713C280.997 329.484 296.978 330.157 301.31 329.882Z" fill="var(--fill-0, #FF6B35)"/>
<path id="Vector_11" d="M291.587 338.635C292.734 338.265 292.395 338.196 293.415 338.452C295.374 339.71 316.189 337.583 318.61 340.036L318.513 340.661C315.683 342.514 293.833 341.499 289.348 341.3C288.291 341.253 287.401 341.009 286.736 340.162L287.071 339.476C288.267 338.86 289.854 338.983 291.372 338.679L291.587 338.635Z" fill="var(--fill-0, #FF6B35)"/>
<path id="Vector_12" d="M348.294 358.879C348.655 358.933 350.344 359.208 350.596 359.154C351.042 360.337 351.221 365.417 349.684 366.014C348.328 364.791 348.407 360.805 348.294 358.879Z" fill="var(--fill-0, #FF6B35)"/>
<path id="Vector_13" d="M291.977 302.198C290.909 290.456 291.529 271.193 291.508 258.981L291.478 241.515C291.472 237.576 291.416 233.489 291.825 229.573C292.189 226.085 296.71 222.73 300.048 222.523C308.065 222.025 316.205 222.281 324.248 222.263C330.386 222.201 336.524 222.189 342.665 222.227C349.536 222.259 359.944 221.001 361.041 230.668C361.576 235.377 361.29 241.208 361.287 246.027L361.148 274.848C361.117 281.308 361.749 296.212 360.843 301.852C350.423 301.873 337.854 302.232 327.603 301.882L325.141 301.895C314.197 301.696 303.044 302.184 291.977 302.198ZM325.336 240.127L327.433 240.193C332.452 239.669 356.68 240.679 359.221 238.769L358.821 238.359C353.913 236.55 307.218 237.583 298.999 237.534C297.051 237.522 293.379 238.15 291.336 238.724C300.646 241.194 315.579 239.532 325.336 240.127Z" fill="var(--fill-0, #FF6B35)"/>
<path id="Vector_14" d="M325.336 240.127L327.433 240.193C328.367 257.088 328.043 273.902 328.047 290.818C328.047 294.547 327.921 298.167 327.603 301.882L325.141 301.895C324.723 289.091 324.569 276.279 324.673 263.468C324.673 256.906 324.44 246.373 325.336 240.127Z" fill="var(--fill-0, #FF6B35)"/>
<path id="Vector_15" d="M212.819 339.881C212.201 336.855 212.55 329.104 212.552 325.829L212.591 299.264L212.538 268.201C212.502 258.832 209.497 239.558 223.287 240.265C229.509 240.583 240.213 238.504 245.042 242.891C248.899 246.396 247.943 253.411 247.921 258.37L247.857 276.354C247.849 283.767 248.233 291.223 248.075 298.613C247.781 312.348 247.874 326.051 248.119 339.786C237.009 339.764 223.759 339.46 212.819 339.881ZM242.623 300.043C243.847 299.63 244.755 298.587 244.999 297.313C245.244 296.039 244.787 294.732 243.805 293.891C242.822 293.05 241.465 292.806 240.253 293.252C238.414 293.928 237.458 295.965 238.106 297.822C238.754 299.68 240.767 300.669 242.623 300.043Z" fill="var(--fill-0, #FF6B35)"/>
<path id="Vector_16" d="M240.253 293.252C241.465 292.806 242.822 293.05 243.805 293.891C244.787 294.732 245.244 296.039 244.999 297.313C244.755 298.587 243.847 299.63 242.623 300.043C240.767 300.669 238.754 299.68 238.106 297.822C237.458 295.965 238.414 293.928 240.253 293.252Z" fill="var(--fill-0, #FF6B35)"/>
<path id="Vector_17" d="M156.085 301.802C155.71 299.672 155.913 290.809 155.916 288.082L155.893 260.787C155.991 247.666 156.721 242.607 171.365 242.712C185.254 242.811 183.993 255.505 183.419 265.852C183.588 271.421 183.681 281.151 183.216 286.559C177.724 291.284 176.738 295.896 181.52 301.675C178.437 301.729 174.17 301.692 171.152 301.929L171.022 265.837C174.17 266.036 179.449 266.829 181.918 265.179L181.103 264.335C178.833 263.455 173.57 263.921 171.102 264.277C171.092 261.308 171.474 245.74 169.569 244.661C168.094 247.416 168.399 260.441 168.549 264.138C166.899 264.061 164.493 264.212 162.789 264.267C161.592 264.188 161.074 264.056 159.977 264.502L159.804 264.963C160.813 265.703 161.545 265.619 162.858 265.562C164.711 265.768 166.704 265.747 168.579 265.768C168.196 274.121 168.237 281.607 168.418 289.983C168.471 292.401 168.75 299.725 168.565 301.817C164.598 301.922 160.096 301.808 156.085 301.802Z" fill="var(--fill-0, #FF6B35)"/>
<path id="Vector_18" d="M232.643 171.93C230.314 167.39 228.564 142.381 233.492 139.754C237.104 137.829 259.724 136.954 261.546 141.125C263.863 146.427 263.204 165.897 261.574 171.771L261.413 171.985C256.284 174.07 238.279 174.128 232.643 171.93ZM248.797 162.012C248.963 160.443 248.909 158.794 248.904 157.209C251.687 157.552 256.568 157.495 259.2 156.873C260.474 156.861 260.976 156.981 261.788 155.951L261.585 155.393C260.624 154.678 260.181 154.828 258.901 154.849C257.733 154.636 253.68 154.619 252.369 154.593C251.31 154.319 249.916 154.282 248.8 154.204C248.817 151.491 249.255 144.076 247.952 141.545C247.735 141.124 247.522 141.222 246.969 141.135L246.094 141.822L245.778 146.002C245.646 148.907 245.62 151.365 245.662 154.273L247.75 154.039C249.631 156.084 248.445 158.636 248.797 162.012Z" fill="var(--fill-0, #FF6B35)"/>
<path id="Vector_19" d="M245.572 157.371C242.667 157.393 234.173 157.989 232.437 155.935L232.768 155.44C235.611 154.094 242.366 154.225 245.662 154.273L247.75 154.039C249.631 156.084 248.445 158.636 248.797 162.012C248.818 165.292 248.7 167.238 248.359 170.501C247.713 171.328 248.108 171.135 247.241 171.286C245.277 169.582 245.541 160.204 245.572 157.371Z" fill="var(--fill-0, #FF6B35)"/>
<path id="Vector_20" d="M246.094 141.822L246.969 141.135C247.522 141.222 247.735 141.124 247.952 141.545C249.255 144.076 248.817 151.491 248.8 154.204C249.916 154.282 251.31 154.319 252.369 154.592C251.168 154.882 251.13 154.668 250.547 155.425C251.585 156.235 252.943 156.154 254.24 156.184C256.241 156.856 257.022 156.935 259.2 156.873C256.568 157.495 251.687 157.552 248.904 157.209C248.909 158.794 248.963 160.443 248.797 162.012C248.445 158.636 249.631 156.084 247.75 154.039C247.603 151.301 246.238 149.212 246.248 147.462C247.066 146.554 247.876 145.784 247.998 144.606C247.773 143.355 246.997 142.778 246.094 141.822ZM247.689 149.647C248.386 148.715 248.852 147.542 247.855 146.586C246.835 148.095 246.635 147.992 247.689 149.647Z" fill="var(--fill-0, #FF6B35)"/>
<path id="Vector_21" d="M247.855 146.586C248.852 147.542 248.386 148.715 247.689 149.647C246.635 147.992 246.835 148.095 247.855 146.586Z" fill="var(--fill-0, #FF6B35)"/>
<path id="Vector_22" d="M245.778 146.002L246.248 147.462C246.238 149.212 247.603 151.301 247.75 154.039L245.662 154.273C245.62 151.365 245.646 148.907 245.778 146.002Z" fill="var(--fill-0, #FF6B35)"/>
<path id="Vector_23" d="M246.094 141.822C246.997 142.778 247.773 143.354 247.998 144.606C247.876 145.784 247.066 146.554 246.248 147.462L245.778 146.002L246.094 141.822Z" fill="var(--fill-0, #FF6B35)"/>
<path id="Vector_24" d="M252.369 154.592C253.68 154.619 257.733 154.635 258.901 154.849C257.477 154.97 254.582 154.869 253.638 155.217C253.823 155.801 253.775 155.806 254.24 156.184C252.943 156.155 251.585 156.236 250.547 155.425C251.13 154.668 251.168 154.882 252.369 154.592Z" fill="var(--fill-0, #F1F9F9)" fill-opacity="0.0980392"/>
<path id="Vector_25" d="M281.903 302.113C281.347 299.975 281.546 292.635 281.546 290.082L281.541 270.107L281.534 240.533C281.543 235.866 281.397 228.148 281.836 223.616C282.034 221.617 282.667 219.686 283.692 217.962C287.748 211.278 298.655 212.782 305.496 212.762C315.459 212.733 325.424 212.757 335.386 212.833C344.049 212.88 352.731 212.483 361.375 212.948C363.057 213.033 364.274 213.489 365.68 214.413C371.459 218.211 371.17 223.656 371.264 229.829C371.399 238.742 371.097 247.593 371.113 256.473L371.245 287.056C371.233 291.415 371.456 297.695 370.931 301.838L367.308 301.84L367.324 249.298C367.315 240.833 367.535 232.224 367.01 223.793C366.591 219.823 364.007 217.529 360.202 217.448C338.247 216.986 316.271 217.346 294.308 217.202C290.177 217.175 286.321 218.812 285.887 223.52C285.387 228.938 285.532 234.717 285.5 240.189L285.522 281.483C285.531 286.032 285.817 298.098 285.242 302.197L281.903 302.113Z" fill="var(--fill-0, #FF6B35)"/>
<path id="Vector_26" d="M203.169 340.051C202.904 318.119 203.118 295.524 203.143 273.549C203.153 267.876 203.129 262.203 203.071 256.53C202.875 244.169 200.989 231.594 217.904 231.621C227.61 231.994 237.538 231.004 247.174 232.116C249.185 232.348 251.323 233.412 252.858 234.766C257.785 239.112 257.058 246.057 257.241 252.139C257.439 258.683 257.17 265.754 257.246 272.338C256.905 278.803 256.948 284.996 256.854 291.427C256.616 307.59 257.27 323.986 256.47 340.118C255.574 340.197 254.348 340.055 253.425 339.982C252.233 325.039 254.681 246.061 251.621 239.688C250.954 238.3 249.297 237.239 247.898 236.753C245.111 235.785 219.291 235.8 215.176 236.144C213.825 236.257 212.254 236.516 211.063 237.182C209.644 237.976 208.04 239.891 207.676 241.468C206.673 245.819 207.405 255.404 207.391 260.353C207.351 273.489 206.882 286.616 206.867 299.744L206.881 325.513C206.882 328.949 207.23 337.029 206.343 340.004C205.304 340.165 204.227 340.083 203.169 340.051Z" fill="var(--fill-0, #FF6B35)"/>
<path id="Vector_27" d="M145.974 301.8C145.936 301.452 145.914 301.125 145.914 300.772C145.938 283.389 145.834 265.84 146.023 248.473C146.127 239.005 150.702 234.77 159.996 234.826C165.286 234.857 171.313 234.812 176.58 234.631C194.642 234.014 192.542 246.216 192.505 259.274C192.44 268.356 192.437 277.438 192.495 286.52L188.921 285.489L188.877 285.11C188.531 281.943 188.658 277.087 188.651 273.767L188.638 255.061C188.657 248.74 190.206 239.979 181.482 239.049C178.162 238.715 174.27 238.82 170.96 238.922C165.271 239.098 155.69 236.969 151.758 242.053C149.616 244.821 150.261 254.406 150.265 258.05L150.333 288.427C150.342 291.175 150.617 299.685 150.364 301.936L145.974 301.8Z" fill="var(--fill-0, #FF6B35)"/>
<path id="Vector_28" d="M175.381 306.149L181.162 306.088C180.547 314.005 181.24 324.097 181.357 332.171C181.399 335.06 182.265 338.882 182.3 341.951C181.447 342.448 180.806 342.277 179.706 342.289L171.942 342.413C172.916 330.106 171.837 318.41 172.111 306.626C173.076 306.072 174.224 306.181 175.381 306.149Z" fill="var(--fill-0, #FF6B35)"/>
<path id="Vector_29" d="M156.086 306.859C156.868 306.217 158.017 306.09 158.9 306.626C158.729 318.17 159.002 330.454 160.352 341.92C159.388 342.558 157.256 342.384 156.032 342.35C155.945 340.639 155.944 338.711 155.965 336.998C156.091 326.986 155.774 316.858 156.086 306.859Z" fill="var(--fill-0, #FF6B35)"/>
<path id="Vector_30" d="M162.858 265.562C161.545 265.619 160.813 265.703 159.804 264.963L159.977 264.502C161.074 264.056 161.592 264.188 162.789 264.267L163.048 264.382C164.141 264.859 164.38 264.922 165.55 265.103C164.839 265.199 163.489 265.335 162.858 265.562Z" fill="var(--fill-0, #F1F9F9)" fill-opacity="0.0431373"/>
<path id="Vector_31" d="M132.596 194.519C134.021 194.332 134.88 193.854 135.873 192.82C138.658 189.922 141.464 187.049 144.297 184.197L167.441 160.6L228.096 99.2118C231.742 95.5473 245.874 80.4438 248.779 79.1174C250.168 79.1408 252.527 80.8118 253.412 81.7412C258.241 86.8133 298.29 124.238 298.75 128.473C298.655 128.464 298.559 128.467 298.466 128.447C295.55 127.833 254.029 88.3771 250.008 83.3496L249.73 82.9984C247.236 84.8085 241.334 91.122 238.874 93.638L220.815 111.891L182.238 150.486C167.354 165.45 152.541 180.378 136.825 194.476C141.782 194.018 148.53 194.078 153.797 193.766C156.361 190.497 160.876 186.321 163.834 183.171C169.558 177.077 175.538 170.905 181.523 165.063C188.213 158.532 194.947 150.681 201.822 144.486C201.403 146.495 194.046 153.17 192.169 155.072L171.787 175.854L159.06 188.997C157.902 190.179 155.25 193.099 154.047 193.986C151.25 194.634 134.828 195.31 132.596 194.519Z" fill="var(--fill-0, white)"/>
<path id="Vector_32" d="M427.541 323.104C427.019 325.646 425.824 331.873 423.113 332.853C422.142 331.984 423.135 326.117 423.261 324.577C423.78 318.808 421.66 313.112 417.507 309.097C413.941 305.623 409.218 303.897 404.278 304.016C402.042 304.078 399.828 304.489 397.718 305.233C395.439 306.048 391.096 308.886 389.228 308.492C389.037 307.761 389.181 307.311 389.662 306.679C396.071 298.269 409.498 298.198 417.522 304.077C423.557 308.497 425.795 313.071 427.188 319.899C428.462 320.398 430.091 320.869 431.273 321.445C440.468 325.899 442.489 335.234 438.842 344.202C438.741 344.449 438.641 344.695 438.534 344.942C449.69 347.12 458.63 363.634 450.618 372.172L449.143 372.447C448.583 364.364 451.568 358.652 444.228 352.023C442.464 350.426 440.42 349.178 438.197 348.34C437.16 347.951 434.93 347.401 433.694 347.151C433.66 347.145 433.54 346.525 433.537 346.402C433.509 344.765 435.122 342.331 435.735 340.744C437.751 335.534 436.594 330.245 432.364 326.563C431.003 325.377 429.015 324.113 427.541 323.104Z" fill="var(--fill-0, white)"/>
<path id="Vector_33" d="M404.467 327.758C409.671 327.786 413.925 331.456 416.067 336.021C417.686 339.467 417.664 342.628 417.749 346.326C420.962 346.864 422.519 347.11 425.104 349.364C427.641 351.574 429.767 356.686 427.17 359.423C424.689 360.021 424.503 356.929 424.082 355.073C423.761 353.72 423.088 352.652 422.066 351.922C415.419 347.18 416.268 353.177 411.513 354.697C411.114 354.824 411.001 354.605 410.639 354.321C410.872 352.671 411.928 350.053 412.485 348.561C415.661 340.959 412.966 335.803 406.498 331.383C404.809 330.226 403.539 329.68 404.467 327.758Z" fill="var(--fill-0, white)"/>
<path id="Vector_34" d="M195.389 382.101C196.125 382.528 195.808 382.237 196.24 383.122C195.455 389.119 182.461 414.772 178.999 421.351C178.18 422.906 176.942 424.227 175.531 425.318C175.095 425.106 175.174 425.09 174.819 424.705C174.798 424.379 174.784 424.082 174.818 423.756C175.357 418.559 188.579 391.547 191.863 386.252C192.879 384.611 193.866 383.293 195.389 382.101Z" fill="var(--fill-0, white)"/>
<path id="Vector_35" d="M259.652 382.253C263.414 383.094 270.72 400.8 272.878 404.973C275.271 409.597 280.842 420.545 280.538 425.343C275.01 422.577 268.829 404.666 265.285 398.65C263.265 395.22 258.974 386.009 259.652 382.253Z" fill="var(--fill-0, white)" fill-opacity="0.988235"/>
<path id="Vector_36" d="M106.892 331.086L110.191 331.443C111.003 331.994 111.938 332.446 112.072 333.403C109.884 335.616 103.309 333.903 99.4416 338.234C95.5972 342.539 95.5827 346.5 95.5343 351.918C95.5585 352.699 95.5428 352.646 95.1862 353.35L94.6026 353.502C89.501 351.479 92.314 340.326 95.4465 337.064C99.224 333.132 101.553 331.696 106.892 331.086Z" fill="var(--fill-0, white)"/>
<path id="Vector_37" d="M449.143 372.447L450.618 372.172L450.907 373.295L448.954 373.073L449.143 372.447Z" fill="var(--fill-0, white)" fill-opacity="0.0588235"/>
</g>
</svg>
