<svg preserveAspectRatio="none" width="100%" height="100%" overflow="visible" style="display: block;" viewBox="0 0 536 536" fill="none" xmlns="http://www.w3.org/2000/svg">
<g id="Online Learning 4 [Vectorized]">
<path id="Vector" d="M272.055 92.1659C274.841 91.4001 279.464 89.4256 282.363 88.3552C287.24 86.5593 292.198 84.9945 297.222 83.6659C325.178 76.0564 354.805 72.1429 383.655 70.1781C394.714 69.4251 435.376 70.4488 443.57 77.5301L443.842 78.0664C445.617 81.3695 443.778 94.9062 444.974 99.2086L445.188 99.1627C446.645 99.6906 449.078 99.5858 450.679 99.6045C455.208 99.6578 459.509 100.099 463.995 100.708C463.931 107.845 462.809 119.252 462.149 126.485C460.32 145.575 458.166 164.633 455.694 183.651C454.897 190.353 454.173 197.064 453.526 203.782C453.211 206.872 452.548 212.246 452.531 215.237C452.732 217.153 453.077 219.283 453.235 221.123L453.516 221.145C454.119 219.888 454.099 219.467 454.22 218.063L454.9 217.235C456.029 208.824 456.588 199.053 457.553 190.4L465.905 116.316C467.928 114.425 469.305 113.958 469.754 111.448C470.755 111.894 470.4 113.014 471.874 113.787C474.913 113.677 474.852 111.59 477.593 112.91L477.874 113.525L477.415 113.533L477.147 112.852L476.283 112.89L476.022 113.479C476.98 115.558 477.301 115.014 477.281 117.637C477.241 122.841 475.094 126.96 475.948 132.192C476.481 129.54 477.02 126.939 477.599 124.298C478.015 122.421 477.606 121.633 478.403 119.583L478.591 119.552C478.692 123.178 477.553 124.512 478.038 129.083C478.953 125.882 480.276 115.15 480.477 111.756C477.258 111.409 472.172 109.615 469.064 109.634C468.313 108.666 468.434 109.175 468.474 108.122C468.712 108.015 468.933 107.849 469.188 107.801C469.496 107.743 480.688 109.225 481.402 109.489C481.817 109.641 482.524 109.922 482.712 110.336C484.688 114.725 472.035 173.725 470.35 182.757C468.364 193.412 466.367 204.189 464.98 214.937C463.623 225.953 462.859 237.033 462.685 248.13C462.591 253.376 463.064 259.472 462.555 264.607L462.122 265.107C461.938 265.052 461.462 264.931 461.325 264.841C461.308 262.928 461.295 262.162 460.973 260.282C460.91 255.965 460.608 251.215 460.427 246.869C460.391 245.208 460.508 243.064 460.555 241.365C460.468 240.426 460.501 240.413 460.112 239.505L459.543 239.375C458.682 239.886 458.377 240.037 457.432 240.384L457.195 240.469C455.747 241.619 454.706 243.024 452.629 242.166L452.287 247.661L452.2 249.555C451.969 251.118 450.957 256.674 450.92 257.912C450.769 258.508 450.26 260.347 450.217 260.852L449.714 263.371C448.86 266.101 446.994 273.305 445.322 275.006C444.22 275.517 443.714 275.347 442.448 275.24C439.048 277.226 441.329 291.428 442.063 294.667C464.049 303.136 476.481 312.401 486.487 334.672C502.56 370.433 494.179 411.246 481.569 446.689C480.424 449.161 477.338 461.64 475.08 462.012C467.449 463.275 458.424 462.498 450.679 462.605C420.928 463.017 391.233 461.804 361.499 462.082C354.735 462.146 347.15 464.859 340.323 465.258C325.921 466.454 306.877 467.141 292.699 465.399C267.363 462.287 240.751 452.062 217.859 441.041C215.528 439.919 208.315 435.919 207.182 433.634C206.502 432.264 208.086 429.155 208.767 427.721C202.786 426.703 195.543 421.477 190.576 417.936C189.361 417.423 188.579 416.827 187.469 417.021C187.18 417.745 187.166 417.688 187.29 418.449C188.091 419.916 187.921 423.815 186.173 424.254C180.383 425.701 171.389 425.373 165.563 424.891C150.657 423.648 135.856 421.564 120.986 420.16C108.074 419.068 95.1795 417.772 82.3082 416.271C75.917 415.544 69.271 415.088 63.0011 413.658C58.8799 412.717 52.8419 410.027 51.181 405.816C50.3807 403.786 50.0044 401.491 48.9053 399.588C47.9201 397.886 46.1375 396.784 45.1339 395.082C40.6358 387.458 39.8305 303.962 42.6107 293.421C43.0813 291.638 43.8374 290.483 45.2026 289.259C49.4617 285.442 55.1929 282.97 60.228 280.358C69.6016 275.496 79.4027 270.946 88.4973 265.605C88.4705 264.221 88.9157 263.309 88.9887 261.671C88.4152 256.149 88.6809 246.455 88.6939 240.683C88.6755 228.867 88.7217 217.051 88.8323 205.236C88.9482 185.211 89.4179 162.697 89.8996 142.793C90.0969 134.649 89.8192 83.1189 91.8704 79.7464L92.2781 79.7977C93.4194 80.0285 93.2107 80.1822 93.9792 79.7427C94.5276 79.3052 101.999 77.2912 103.186 76.9807C117.165 73.3221 131.626 72.1952 146.018 71.6917C152.328 71.4712 158.695 72.0722 164.986 72.4789C168.523 72.7148 172.482 72.5764 175.962 72.9094C202.627 75.4614 230.097 78.8845 255.976 85.9208C261.282 87.364 267.014 90.0122 272.055 92.1659Z" fill="var(--fill-0, #FEFEFE)"/>
<path id="Vector_2" d="M416.78 294.669C418.676 294.611 423.597 293.472 425.993 293.289C431.178 292.894 435.292 293.464 440.371 294.146L442.063 294.667C464.049 303.136 476.481 312.401 486.487 334.672C502.56 370.433 494.179 411.246 481.569 446.689C480.424 449.161 477.338 461.64 475.08 462.012C467.449 463.275 458.424 462.498 450.679 462.605C420.928 463.017 391.233 461.804 361.498 462.082C354.735 462.146 347.15 464.859 340.323 465.258C325.921 466.454 306.877 467.141 292.699 465.399C267.363 462.287 240.751 452.062 217.859 441.041C215.528 439.919 208.315 435.919 207.182 433.634C206.502 432.264 208.086 429.155 208.767 427.721L208.783 426.612C209.309 425.969 212.637 416.298 213.223 414.77C215.006 410.114 216.924 405.511 218.974 400.965C219.95 398.811 223.218 392.587 223.562 390.791C224.676 390.01 224.595 389.739 224.841 388.63C225.842 387.344 228.003 382.895 229.24 380.979C235.25 382.191 239.927 383.32 245.806 385.076C247.946 380.111 250.756 374.999 253.075 370.111C253.921 368.329 256.966 362.956 257.257 361.395C258.071 360.51 257.821 360.875 258.061 359.559C258.87 358.996 260.475 354.976 261.021 353.8C265.094 353.901 277.353 356.949 282.24 357.733C304.687 361.341 328.187 367.559 348.068 352.316C354.745 347.201 360.162 341.271 365.475 334.841C372.419 326.433 378.597 318.476 386.902 311.262C392.613 306.303 398.925 302.217 405.678 298.81C407.963 297.658 412.67 296.166 414.184 295.112C415.102 295.267 415.866 294.934 416.78 294.669Z" fill="var(--fill-0, #FF6B35)"/>
<path id="Vector_3" d="M435.095 310.932C448.012 310.209 457.382 328.191 459.523 338.859C463.231 357.321 463.074 380.041 451.51 395.947C434.358 419.541 408.305 440.659 382.547 454.337C377.083 457.141 370.031 458.92 364.296 460.169C363.428 460.344 363.351 460.444 362.53 460.092C362.711 459.459 363.482 459.084 364.088 458.856C385.495 450.823 403.933 438.629 420.927 423.49C433.43 412.355 447.272 399.538 453.778 383.702C460.437 367.495 459.416 335.848 447.764 322.414C446.304 320.737 444.666 319.223 442.877 317.901C440.572 316.18 436.066 314.378 434.726 312.236C434.498 311.874 434.84 311.476 435.095 310.932Z" fill="var(--fill-0, #FEFEFE)"/>
<path id="Vector_4" d="M391.25 327.77L392.335 328.167L392.466 328.8C382.449 349.864 365.512 370.744 344.072 380.808C323.094 390.654 299.898 391.431 277.15 390.238C268.18 389.766 261.042 390.034 252.483 386.938C251.453 386.526 251.466 386.503 250.581 385.806L250.648 385.337C251.527 385.18 269.795 387.176 272.809 387.354C285.318 388.205 297.877 388 310.352 386.744C338.497 383.783 359.348 372.751 376.054 349.804C381.166 342.785 386.047 334.188 391.25 327.77Z" fill="var(--fill-0, #FEFEFE)"/>
<path id="Vector_5" d="M88.4973 265.605L88.7881 265.509C94.0657 263.71 100.118 260.42 105.371 258.196C117.285 253.151 129.288 248.198 141.821 244.868C144.878 244.056 153.708 240.901 154.418 245.818C156.127 257.657 154.45 270.054 154.733 282.006C154.916 294.772 155.184 306.609 155.11 319.263C155.086 323.446 155.255 333.188 154.478 336.973C152.869 325.899 154.165 311.727 153.834 300.416C153.589 292.051 153.495 283.615 153.551 275.384C153.589 269.678 154.326 250.601 153.291 246.13L152.968 246.462C152.77 246.007 152.562 245.127 152.091 244.935C149.964 244.066 144.47 246.264 142.183 246.93C120.662 253.192 100.511 261.405 80.6603 271.842C74.1151 275.284 49.7532 287.834 47.8963 293.959C45.8076 300.848 46.9506 366.42 47.9931 376.493C48.7539 383.843 49.9066 390.925 52.8362 397.776C78.3203 400.7 103.823 404.891 129.34 407.574C138.786 408.566 154.022 410.465 163.228 410.419C163.529 411.661 164.216 414.978 165.355 415.437C169.479 417.092 175.512 415.464 180.046 416.472C181.703 416.84 186.332 418.626 187.29 418.448C188.091 419.916 187.921 423.815 186.173 424.254C180.383 425.701 171.389 425.373 165.563 424.891C150.657 423.648 135.856 421.564 120.986 420.16C108.074 419.068 95.1795 417.772 82.3082 416.271C75.917 415.544 69.271 415.088 63.0011 413.658C58.8799 412.717 52.8419 410.027 51.181 405.816C50.3807 403.786 50.0044 401.491 48.9053 399.588C47.9201 397.886 46.1375 396.784 45.1339 395.082C40.6358 387.458 39.8305 303.962 42.6107 293.421C43.0813 291.638 43.8374 290.483 45.2026 289.259C49.4617 285.442 55.1929 282.97 60.228 280.358C69.6016 275.496 79.4027 270.946 88.4973 265.605Z" fill="var(--fill-0, #191819)"/>
<path id="Vector_6" d="M397.36 234.12C392.938 233.071 388.034 231.488 384.567 228.486C377.079 222.337 370.162 204.668 378.094 196.441C391.498 182.536 409.233 198.723 421.279 206.117C422.981 207.16 422.924 215.655 423.025 217.895C423.232 222.384 423.474 226.872 423.748 231.358C424.304 241.666 422.479 236.291 415.886 243.621C413.745 239.653 413.078 238.187 412.486 233.708C408.596 234.495 402.978 234.651 399.106 234.177C396.868 242.323 392.824 249.06 390.466 256.401C393.447 256.948 396.345 257.177 399.357 257.462C399.216 263.61 397.735 270.668 398.516 276.795C400.178 289.842 426.12 281.983 429.152 284.048L429.051 283.648L429.601 283.833C428.019 285.584 419.139 286.363 416.673 286.39C417.212 289.884 417.31 291.126 416.78 294.669C415.866 294.934 415.102 295.267 414.184 295.112C415.47 292.396 415.119 289.706 415.062 286.698C414.663 286.698 414.268 286.69 413.869 286.673C391.689 285.728 396.117 276.093 397.28 259.007C395.143 258.99 392.54 259.065 390.53 258.267C390.067 258.083 389.149 257.595 388.985 257.083C388.302 254.949 396.094 237.47 397.36 234.12Z" fill="var(--fill-0, #191819)"/>
<path id="Vector_7" d="M382.014 201.115L382.707 201.604C383.719 203.899 383.32 209.936 384.201 212.499C385.016 214.863 388.56 218.72 388.888 221.274C388.463 222.322 388.754 221.962 387.528 222.545C380.567 219.315 378.104 207.748 382.014 201.115Z" fill="var(--fill-0, #FEFEFE)"/>
<path id="Vector_8" d="M272.055 92.1659C274.841 91.4001 279.464 89.4256 282.363 88.3552C287.24 86.5593 292.198 84.9945 297.222 83.6659C325.178 76.0564 354.805 72.1429 383.655 70.1781C394.714 69.4251 435.376 70.4488 443.57 77.5301C442.418 78.254 442.374 78.5287 440.967 78.2001C432.753 76.2825 423.266 73.8323 414.82 73.23C378.939 70.6699 339.553 75.9013 304.61 84.2602C293.163 86.9988 282.032 91.045 270.915 94.194C252.116 86.5151 237.779 83.3222 217.52 80.6469C179.15 75.58 140.301 69.9105 102.026 79.2044C99.967 79.7009 95.7055 80.9286 93.9792 79.7427C94.5276 79.3052 101.999 77.2912 103.186 76.9807C117.165 73.3221 131.626 72.1952 146.018 71.6917C152.328 71.4712 158.695 72.0722 164.986 72.4789C168.523 72.7148 172.482 72.5764 175.962 72.9094C202.627 75.4614 230.097 78.8845 255.976 85.9208C261.282 87.364 267.014 90.0122 272.055 92.1659Z" fill="var(--fill-0, #020202)"/>
<path id="Vector_9" d="M88.9887 261.671C88.4152 256.149 88.6809 246.455 88.6939 240.683C88.6755 228.867 88.7217 217.051 88.8323 205.236C88.9482 185.211 89.4179 162.697 89.8996 142.793C90.0969 134.649 89.8192 83.1189 91.8704 79.7464L92.2781 79.7977C92.2352 90.5743 91.8091 101.985 92.1022 112.712C104.748 109.105 116.904 106.318 130.08 105.451C158.735 103.567 243.334 110.956 266.61 124C267.773 124.652 269.21 125.372 269.737 126.658C268.366 128.41 262.454 124.986 260.468 124.221C241.015 116.725 220.069 114.71 199.571 111.911C175.882 108.807 151.972 106.486 128.072 108.143C115.802 109.017 103.946 111.414 91.9796 114.066C92.0557 124.45 91.7351 134.38 91.6439 144.72L91.2865 192.384C91.2138 197.961 90.9016 203.529 90.8721 209.129L90.9049 243.507C90.9073 248.462 91.0071 253.814 90.7471 258.787C90.6982 259.722 89.6115 260.924 88.9887 261.671Z" fill="var(--fill-0, #020202)"/>
<path id="Vector_10" d="M439.577 210.4C451.928 218.141 452.066 228.684 452.629 242.166L452.287 247.661L452.2 249.555C451.969 251.118 450.957 256.674 450.92 257.912C450.769 258.508 450.26 260.347 450.217 260.852L449.714 263.371C448.86 266.101 446.994 273.305 445.322 275.006C444.22 275.517 443.714 275.347 442.448 275.24C439.048 277.226 441.329 291.428 442.063 294.667L440.371 294.146C438.013 289.511 438.917 281.198 439.681 276.052C438.609 274.717 434.478 275.489 434.589 272.888C435.822 272.092 439.845 269.979 440.599 269.321C444.431 265.97 447.031 260.971 447.466 255.917C448.096 248.606 446.81 245.595 442.498 240.166C442.301 238.763 442.27 237.357 442.223 235.943C441.935 227.343 441.419 218.837 439.577 210.4Z" fill="var(--fill-0, #191819)"/>
<path id="Vector_11" d="M469.064 109.634C468.313 108.666 468.434 109.175 468.474 108.122C468.712 108.015 468.933 107.849 469.188 107.801C469.496 107.743 480.688 109.225 481.402 109.489C481.817 109.641 482.524 109.922 482.712 110.336C484.688 114.725 472.035 173.725 470.35 182.757C468.364 193.412 466.367 204.189 464.98 214.937C463.623 225.953 462.859 237.033 462.685 248.13C462.591 253.376 463.064 259.472 462.555 264.607L462.122 265.107C461.938 265.052 461.462 264.931 461.325 264.841C461.308 262.928 461.295 262.162 460.973 260.282C460.91 255.965 460.608 251.215 460.427 246.869C460.391 245.208 460.508 243.064 460.555 241.365C460.494 239.467 460.736 237.278 460.87 235.368C463.057 204.153 470.116 173.575 475.713 142.863C476.524 138.413 477.566 133.563 478.038 129.083C478.953 125.882 480.276 115.15 480.477 111.756C477.258 111.409 472.172 109.615 469.064 109.634Z" fill="var(--fill-0, #020202)"/>
<path id="Vector_12" d="M443.842 78.0664C445.617 81.3695 443.778 94.9062 444.974 99.2086C444.759 100.566 444.736 102.306 444.769 103.682C445.624 136.958 444.81 170.261 445.202 203.548C445.212 204.636 444.947 205.851 444.518 206.841L444.032 206.942C441.734 203.744 442.625 187.871 442.625 183.09L442.629 142.901L442.646 105.09C442.662 99.5878 442.545 82.4991 443.842 78.0664Z" fill="var(--fill-0, #020202)"/>
<path id="Vector_13" d="M152.968 246.462L153.291 246.13C154.326 250.601 153.589 269.678 153.551 275.384C153.495 283.615 153.589 292.051 153.834 300.416C154.165 311.727 152.869 325.899 154.478 336.973C159.901 336.96 167.104 337.61 172.665 337.888L202.569 339.157C208.76 339.432 252.938 340.256 255.445 342.454L255.187 342.889C254.202 343.234 252.451 343.486 251.404 343.378C218.987 340.025 185.372 341.824 153.104 338.102C153.254 318.862 153.136 299.647 152.888 280.413C152.749 269.635 153.736 257.216 152.968 246.462Z" fill="var(--fill-0, #020202)"/>
<path id="Vector_14" d="M223.562 390.791C210.357 386.419 201.997 377.079 187.235 379.997C185.631 380.315 176.938 381.954 176.044 381.625L176.209 381.079C177.106 380.372 178.398 379.692 179.464 379.27C197.697 372.074 209.061 382.453 224.841 388.63C224.595 389.739 224.676 390.01 223.562 390.791Z" fill="var(--fill-0, #020202)"/>
<path id="Vector_15" d="M257.257 361.395C244.156 357.951 233.837 348.172 219.537 349.271C216.967 349.469 211.171 352.041 208.965 351.392C209.233 350.497 210.597 349.613 211.45 349.197C228.215 341.05 243.422 355.405 258.061 359.559C257.821 360.875 258.071 360.51 257.257 361.395Z" fill="var(--fill-0, #020202)"/>
<path id="Vector_16" d="M165.003 412.191C171.993 410.311 181.487 409.216 187.552 413.554C195.23 419.052 199.912 422.78 208.783 426.612L208.767 427.721C202.786 426.703 195.543 421.477 190.576 417.936C182.204 409.859 174.907 413.417 165.003 412.191Z" fill="var(--fill-0, #020202)"/>
<path id="Vector_17" d="M454.384 227.523C453.108 222.836 451.945 220.084 452.531 215.237C452.732 217.153 453.077 219.283 453.235 221.123L453.516 221.145C454.119 219.888 454.099 219.467 454.22 218.063L454.9 217.235C454.786 220.668 454.615 224.097 454.384 227.523Z" fill="var(--fill-0, #191819)"/>
<path id="Vector_18" d="M145.838 252.622L146.189 252.781C147.29 254.581 146.753 323.771 146.364 331.398C139.651 336.903 123.862 344.953 115.729 349.847C94.1373 362.842 75.9539 373.739 56.6622 389.823C56.4033 388.714 56.1282 387.608 55.8368 386.506C51.9257 360.681 50.585 333.687 51.4084 307.601C51.5176 304.131 51.0929 298.969 52.4248 295.757C54.127 291.653 104.535 268.266 112.195 265.117C118.029 262.718 123.888 260.321 129.828 258.197C135.146 256.295 140.568 254.649 145.838 252.622Z" fill="var(--fill-0, #020202)"/>
<path id="Vector_19" d="M144.041 255.311L144.182 255.354C144.317 255.496 144.452 255.638 144.586 255.78C144.467 259.931 144.503 265.605 144.501 269.596L144.487 304.998C144.487 314.04 144.234 322.273 145.127 331.274C143.742 331.64 142.418 332.08 141.165 332.782C118.309 345.583 95.0083 359.13 73.707 374.396C70.4026 376.738 67.1762 379.187 64.0336 381.743C62.6078 382.918 59.5184 385.786 58.1399 386.603C57.4629 385.94 57.6019 385.351 57.4525 384.222C56.4988 376.969 55.5028 369.783 54.7779 362.504C52.5672 340.306 52.5776 318.243 53.462 295.973C58.9513 292.815 66.2459 289.457 72.0498 286.385C95.946 273.738 118.292 263.629 144.041 255.311Z" fill="var(--fill-0, #FEFEFE)"/>
<path id="Vector_20" d="M172.109 213.799L172.249 213.411C170.397 211.517 169.496 211.258 169.576 208.365C169.724 203.833 170.039 198.791 168.635 194.419C162.749 176.072 141.679 155.824 160.74 137.776C183.106 116.599 208.349 127.687 207.295 158.787C206.62 178.701 191.596 187.518 191.073 206.382C191.041 207.542 191.13 209.151 190.958 210.257C190.864 210.838 190.571 211.369 190.13 211.759C188.901 212.863 187.147 212.681 186.486 213.573L187.467 214.216C184.654 213.552 176.979 215.1 172.109 213.799Z" fill="var(--fill-0, #FF6B35)"/>
<path id="Vector_21" d="M177.456 154.194C181.145 150.772 184.474 155.262 185.855 155.151C188.485 154.203 190.781 153.13 192.254 156.823C195.737 165.55 188.696 171.082 185.316 178.933C183.369 183.453 184.847 204.113 184.379 204.908L183.74 204.87C181.693 201.567 182.376 184.569 183.37 179.926C185.323 170.806 194.819 167.121 190.342 156.7C190.118 156.179 189.674 155.886 189.208 155.633C188.068 155.63 187.34 155.892 186.676 156.923C186.913 159.273 189.41 165.153 185.644 165.824C184.83 165.969 183.9 165.445 183.253 164.992C181.454 162.229 184.164 159.254 183.544 156.145C182.285 154.536 180.266 154.633 178.39 155.098L177.456 154.194Z" fill="var(--fill-0, #020202)"/>
<path id="Vector_22" d="M184.885 158.565L185.686 159.238C186.138 160.869 186.469 162.977 185.831 164.58C183.374 163.31 183.969 160.688 184.885 158.565Z" fill="var(--fill-0, #FF6B35)"/>
<path id="Vector_23" d="M172.638 153.754C165.233 160.67 174.793 178.382 175.873 187.014C176.359 190.899 177.878 208.192 174.898 210.176C174.549 208.846 175.019 202.632 175.038 200.603C175.09 197.357 174.947 194.11 174.611 190.881C173.515 180.246 165.134 165.809 169.131 155.463C170.67 151.481 173.528 151.585 176.856 153.62C174.279 155.079 175.104 153.436 172.638 153.754Z" fill="var(--fill-0, #000205)"/>
<path id="Vector_24" d="M176.856 153.62L177.456 154.194L178.39 155.098C178.706 158.479 181.263 167.388 175.95 167.231C173.062 165.268 175.816 158.751 174.803 155.155C173.861 153.974 174.218 154.352 172.638 153.754C175.104 153.436 174.279 155.079 176.856 153.62Z" fill="var(--fill-0, #0A2842)"/>
<path id="Vector_25" d="M144.476 352.835C149.342 350.551 153.052 346.196 159.59 343.975C156.862 346.949 151.612 350.859 148.085 352.943C153.502 353.462 158.864 354.179 164.268 354.785C167.936 351.593 171.824 348.266 176.328 346.397C173.846 349.532 169.926 353.016 166.547 355.244C172.853 355.703 179.619 357.01 185.764 357.164C188.608 354.745 192.583 351.043 195.89 349.522C193.818 353.123 191.422 355.167 188.102 357.7C190.783 357.891 198.65 358.088 200.497 359.629C199.344 361.184 188.495 359.683 186.616 359.073C182.45 362.674 177.138 367.116 172.775 370.466C178.029 371.073 185.92 372.202 191.045 372.299C192.52 371.11 193.945 369.763 195.737 369.237L196.429 369.324C196.445 370.808 193.373 373.157 192.216 374.168C186.425 374.275 176.386 373.079 170.379 372.212C167.273 375.217 161.484 379.354 157.91 382.004C160.663 382.336 166.775 382.66 168.709 384.389C167.378 385.632 158.208 383.883 155.725 383.789C151.382 387.119 146.292 391.099 141.804 394.194C148.208 395.015 153.995 395.779 160.434 396.235C161.85 395.109 162.937 394.208 164.497 393.28L164.978 393.484C164.74 395.598 162.982 394.885 162.683 396.318C163.311 396.677 163.73 396.928 164.339 397.34L164.278 397.906C163.133 398.466 161.476 398.322 160.13 398.332C157.991 400.027 154.2 402.586 151.783 403.936C153.948 401.089 155.573 399.963 158.529 397.923C151.944 397.615 145.525 396.365 139.389 396.047C136.484 398.104 134.578 399.471 131.403 401.136C133.287 398.898 134.975 397.404 137.233 395.551C130.862 394.674 124.452 393.756 118.073 392.958C115.393 395.28 111.961 397.605 108.597 398.777C111.001 396.854 114.16 394.184 116.613 392.456C111.565 392.007 102.087 390.989 97.1617 390.041C94.7196 391.561 93.526 392.791 90.8487 393.967L90.5602 393.793C91.726 392.057 92.4459 391.632 94.1397 390.372L94.5387 390.178C94.4955 389.548 94.4841 389.726 94.5829 389.139L95.876 388.831C98.0749 387.374 109.258 378.872 110.298 377.227C110.338 376.795 110.391 376.778 110.552 376.362L112.223 376.017C116.453 373.749 121.561 368.889 126.415 366.135C123.98 365.492 123.131 365.21 120.859 364.158C123.205 364.038 125.715 364.413 128.064 364.681C132.774 361.23 138.011 357.606 142.805 354.259C142.749 353.911 142.78 353.683 142.79 353.324L144.476 352.835Z" fill="var(--fill-0, #020202)"/>
<path id="Vector_26" d="M113.262 377.84C117.018 377.733 128.283 379.438 132.393 380.024C130.14 381.666 120.139 389.967 118.515 390.781C111.829 390.412 105.294 389.116 98.2676 388.868C103.321 385.397 108.345 381.525 113.262 377.84Z" fill="var(--fill-0, #FEFEFE)"/>
<path id="Vector_27" d="M135.396 380.151C137.038 380.992 151.001 382.818 153.712 383.22C149.2 386.828 144.065 390.627 139.405 394.01C134.433 392.938 125.676 391.984 120.381 391.25C124.154 389.025 131.561 383.042 135.396 380.151Z" fill="var(--fill-0, #FEFEFE)"/>
<path id="Vector_28" d="M164.503 357.03C169.035 357.1 178.743 358.581 184.026 359.006C180.303 361.569 173.978 367.143 170.273 370.235C165.795 370.058 155.906 368.336 150.694 367.817C155.059 364.979 160.464 360.443 164.503 357.03Z" fill="var(--fill-0, #FEFEFE)"/>
<path id="Vector_29" d="M146.181 354.343L162.488 356.45C159.208 358.554 150.57 366.373 148.072 367.394C143.419 366.55 135.284 365.468 130.635 365.08C135.39 362.256 141.304 357.556 146.181 354.343Z" fill="var(--fill-0, #FEFEFE)"/>
<path id="Vector_30" d="M149.1 369.441C153.854 370.312 163.473 371.595 168.206 371.883L155.713 381.595C155.112 381.84 138.987 379.163 137.032 378.808C141.086 375.726 145.109 372.604 149.1 369.441Z" fill="var(--fill-0, #FEFEFE)"/>
<path id="Vector_31" d="M129.51 366.091C131.669 367.137 143.461 368.637 146.436 368.986C143.812 370.892 136.223 377.729 133.743 378.359C128.037 377.85 121.437 376.838 115.435 376.255C118.703 374.255 126.031 368.564 129.51 366.091Z" fill="var(--fill-0, #FEFEFE)"/>
<path id="Vector_32" d="M314.035 199.839C323.082 199.021 336.42 202.08 345.408 203.496C349.576 204.152 354.892 205.043 358.926 206.277C360.061 206.624 360.316 206.887 360.725 207.783C360.296 210 349.164 218.237 346.735 220.165C351.495 227.31 357.097 232.735 362.004 240.587C357.693 244.349 353.321 248.039 348.886 251.654L340.923 258.355C333.701 250.836 330.446 246.242 323.972 238.63C319.2 243.801 313.155 249.195 306.936 252.496C307.278 245.389 307.919 204.054 310.384 200.721C311.596 199.894 312.553 199.969 314.035 199.839Z" fill="var(--fill-0, #020202)"/>
<path id="Vector_33" d="M311.873 201.61C324.666 201.735 337.074 204.799 349.603 207.03C352.229 207.499 354.624 208.034 357.294 208.231C353.237 211.514 347.552 216.526 344.038 220.217C346.859 224.908 355.726 235.885 359.616 239.759C356.058 242.596 352.581 245.529 349.184 248.557C346.46 250.898 343.807 253.319 341.231 255.817C340.129 254.187 337.01 250.905 335.569 249.267C331.67 244.785 327.738 240.331 323.773 235.906C318.92 239.504 314.545 244.796 308.739 249.07C309.31 233.569 311.184 217.232 311.873 201.61Z" fill="var(--fill-0, #FEFEFE)"/>
<path id="Vector_34" d="M158.48 291.121C181.422 291.103 254.901 293.348 272.925 302.445C285.616 299.334 300.81 297.5 313.902 296.084C341.78 292.853 369.853 291.621 397.91 292.399C401.558 292.502 407.799 292.013 411.145 293.064C411.799 293.27 411.859 294.142 412.067 294.882C410.238 295.83 388.851 294.184 384.634 294.426C382.235 294.563 376.366 294.446 373.646 294.508C351.763 294.927 329.913 296.448 308.182 299.066C301.248 299.886 294.329 300.835 287.429 301.911C283.993 302.429 275.706 303.876 272.746 303.707C265.763 303.309 257.009 301.2 249.889 300.045C239.067 298.385 228.195 297.077 217.288 296.122C204.704 295.043 192.088 294.374 179.46 294.117C173.862 294.033 163.958 294.468 158.973 293.985C158.274 292.939 158.506 292.541 158.48 291.121Z" fill="var(--fill-0, #020202)"/>
<path id="Vector_35" d="M429.983 205.463C431.621 205.302 433.795 205.159 435.155 206.25C439.021 209.354 439.135 235.561 439.54 241.974C440.471 242.744 441.158 243.337 441.929 244.285C444.478 247.404 445.654 251.422 445.192 255.422C444.605 260.125 442.153 264.396 438.384 267.272C422.773 279.191 402.945 256.175 421.973 242.564C421.135 244.368 420.971 244.604 419.611 246.057C414.214 253.138 415.021 262.568 423.336 266.847C426.388 268.455 429.966 268.747 433.239 267.655C440.619 265.253 444.562 255.887 441.915 249.029C437.818 238.418 428.09 241.949 420.7 244.643C422.401 242.61 423.638 241.607 425.785 240.117C425.909 234.293 425.788 228.467 425.427 222.654C425.112 217.766 423.976 211.812 424.683 207.214C425.829 205.746 428.073 205.736 429.983 205.463Z" fill="var(--fill-0, #020202)"/>
<path id="Vector_36" d="M431.373 207.187C432.103 207.155 433.822 207.301 434.056 207.791C437.061 214.094 437.121 234.496 437.644 240.654C436.508 240.211 434.914 239.719 433.731 239.316C431.296 239.233 430.056 239.174 427.671 239.493C428.009 227.848 426.365 218.345 426.435 207.708L431.373 207.187Z" fill="var(--fill-0, #FEFEFE)"/>
<path id="Vector_37" d="M124.857 77.2225C126.659 77.7897 135.271 90.3385 136.999 92.6282L131.708 92.8818C131.567 95.5119 131.783 98.829 131.403 101.493C131.308 102.163 130.503 102.38 129.91 102.653C126.823 101.846 129.14 94.3236 127.437 91.8851L126.427 91.9408C124.93 92.051 124.267 92.0312 122.826 92.5237C120.822 94.3534 123.482 100.313 120.908 102.443C119.892 102.552 119.948 102.557 119.048 102.064C118.343 100.965 118.632 94.3625 118.634 92.5907C117.154 92.5049 114.907 92.6546 113.956 91.4922C115.036 88.8963 122.695 79.8777 124.857 77.2225Z" fill="var(--fill-0, #191819)"/>
<path id="Vector_38" d="M188.651 222.274C191.361 221.226 195.952 220.656 196.349 217.436C195.483 215.798 192.539 215.671 190.523 214.972L190.378 214.322L190.868 213.939C192.445 213.656 195.501 214.017 196.774 214.944C199.782 217.133 197.447 219.351 195.654 221.241C194.474 222.485 196.711 223.855 196.69 225.472C196.668 227.189 195.135 227.4 195.135 228.923C195.232 230.05 196.205 231.758 196.218 232.818C196.251 235.599 190.157 235.992 188.296 236.227C183.378 236.849 163.259 237.975 163.722 230.576C166.091 226.379 161.154 227.065 163.696 223.276C164.831 221.583 164.509 220.946 164.125 219.069C163.17 214.404 168.783 213.843 172.109 213.799C176.979 215.1 184.654 213.552 187.467 214.216L187.405 214.997C184.157 216.847 172.354 215.375 168.522 216.124C167.016 216.419 166.102 217.419 165.352 218.704C165.197 223.874 180.616 220.185 182.083 221.823L181.801 222.367C178.253 224.275 167.276 221.857 164.913 225.166L165.188 226.107C168.232 229.389 178.992 226.325 181.416 227.112L181.398 227.613C176.842 231.692 166.341 227.461 165.629 231.05C167.65 236.405 192.423 235.789 194.718 232.47C194.545 230.037 191.189 229.443 190.337 227.528L190.901 227.195C192.708 227.544 194.35 227.58 195.344 225.719C194.697 223.338 190.71 222.603 188.651 222.274Z" fill="var(--fill-0, #020202)"/>
<path id="Vector_39" d="M146.106 339.033L146.961 339.251L146.969 339.787C145.853 340.819 144.365 341.482 143.012 342.189C138.209 344.692 133.692 347.492 129.159 350.45C114.762 359.951 100.436 369.555 86.1818 379.267C80.4137 383.186 67.5028 392.452 61.7703 395.002C61.0903 394.985 61.4058 395.059 60.843 394.69C63.4269 390.087 111.255 361.096 118.158 355.177C122.592 351.375 139.867 340.956 146.106 339.033Z" fill="var(--fill-0, #020202)"/>
<path id="Vector_40" d="M386.295 133.831C388.493 133.772 390.69 133.728 392.885 133.701C394.329 133.693 396.426 133.689 397.477 134.731L397.303 135.311C396.412 135.798 395.447 136.128 394.422 136.149C377.458 136.513 360.447 137.37 343.563 139.088C338.551 139.598 333.168 140.005 328.223 140.864C326.182 141.09 318.75 142.378 317.234 141.731C319.302 140.076 324.842 139.855 327.779 139.331C347.388 135.832 366.446 134.684 386.295 133.831Z" fill="var(--fill-0, #020202)"/>
<path id="Vector_41" d="M389.471 148.544C391.19 148.475 393.89 147.972 394.841 149.599C394.767 149.674 394.704 149.76 394.62 149.826C391.203 152.527 333.573 153.568 326.039 153.589C324.245 153.549 321.233 153.742 319.968 152.5C321.915 151.292 350.768 150.702 355.187 150.538C366.627 150.065 378.054 149.4 389.471 148.544Z" fill="var(--fill-0, #020202)"/>
<path id="Vector_42" d="M322.181 168.245C326.788 167.544 391.638 164.155 394.66 165.195C394.881 165.27 395.039 165.468 395.226 165.604L395.216 166.179C392.543 168.126 367.549 168.193 363.113 168.374C355.703 168.741 348.289 169.03 340.873 169.243C338.156 169.316 333.813 169.563 331.187 169.42C329.39 169.456 321.029 169.987 320.2 168.825C321.214 168.069 320.765 168.274 322.181 168.245Z" fill="var(--fill-0, #020202)"/>
<path id="Vector_43" d="M331.187 169.42C329.39 169.456 321.029 169.987 320.2 168.825C321.214 168.069 320.765 168.274 322.181 168.245C324.854 168.956 329.483 168.822 331.187 169.42Z" fill="var(--fill-0, #191819)"/>
<path id="Vector_44" d="M181.447 385.032C193.192 383.598 205.225 389.267 213.56 397.303C209.585 395.725 205.203 392.707 200.747 390.811C194.243 388.071 190.564 387.146 183.389 387.216C179.306 387.257 170.664 391.689 168.442 390.573L168.502 389.903C171.024 387.103 177.779 385.541 181.447 385.032Z" fill="var(--fill-0, #020202)"/>
<path id="Vector_45" d="M421.025 87.7281C420.361 86.1285 418.06 82.9808 418.415 81.4559C419.969 81.6991 422.636 84.6414 423.698 85.8967C425.182 84.6642 428.522 81.9906 430.515 82.4539C430.74 84.4079 426.566 86.8199 425.071 87.8377C426.679 90.3753 431.071 97.2133 430.532 99.9204L430.009 100.307C426.867 99.5858 425.685 92.6898 422.733 90.2932C422.174 90.381 422.06 90.379 421.524 90.5528C421.279 91.9555 417.909 95.6737 416.016 95.3202L415.872 94.809C416.556 92.4727 419.343 89.6095 421.025 87.7281Z" fill="var(--fill-0, #FF6B35)"/>
<path id="Vector_46" d="M213.979 354.909C220.164 354.675 238.262 357.83 241.669 363.576L241.204 363.837C239.329 363.599 236.886 362.477 235.074 361.743C220.09 355.361 216.583 357.271 202.149 357.572C206.235 355.864 209.662 355.335 213.979 354.909Z" fill="var(--fill-0, #020202)"/>
<path id="Vector_47" d="M386.372 83.3926C393.538 84.0756 394.63 91.7123 388.118 93.7839L387.739 93.7678C380.694 93.4003 381.769 86.4672 386.372 83.3926Z" fill="var(--fill-0, #020202)"/>
<path id="Vector_48" d="M386.969 85.2568C388.325 85.5409 389.089 85.9744 389.739 87.2625C390.245 88.2504 390.285 89.4105 389.85 90.4306C389.377 91.5196 388.828 91.5063 387.739 91.9706C385.87 91.4439 385.099 91.4801 384.486 89.4671C384.61 87.3312 385.478 86.6504 386.969 85.2568Z" fill="var(--fill-0, #FF6B35)"/>
<path id="Vector_49" d="M363.013 84.7088C369.88 84.7624 371.817 91.5046 365.441 95.0847C362.684 95.2492 359.586 93.929 359.683 90.7428C359.767 87.9325 361.194 86.5737 363.013 84.7088Z" fill="var(--fill-0, #020202)"/>
<path id="Vector_50" d="M363.9 86.6511C368.028 87.237 369.103 91.7089 364.232 92.7685C362.514 92.8687 361.646 92.3722 361.19 90.7622C361.519 88.5948 362.309 87.9807 363.9 86.6511Z" fill="var(--fill-0, #FF6B35)"/>
<path id="Vector_51" d="M340.625 88.7492C347.231 89.5646 348.387 95.9383 342.41 99.0495C335.278 99.6682 334.645 91.8597 340.625 88.7492Z" fill="var(--fill-0, #020202)"/>
<path id="Vector_52" d="M340.97 91.0396C342.574 90.8798 344.025 92.0101 344.263 93.6077C344.497 95.2053 343.439 96.7071 341.854 97.02C340.759 97.2361 339.633 96.8324 338.926 95.9695C338.219 95.1065 338.045 93.9243 338.471 92.8935C338.899 91.8624 339.858 91.1501 340.97 91.0396Z" fill="var(--fill-0, #FF6B35)"/>
<path id="Vector_53" d="M175.349 395.776L175.796 395.725C185.463 394.741 197.538 397.809 204.981 403.956C202.879 403.229 200.654 402.298 198.573 401.471C192.479 398.854 185.993 397.062 179.276 397.283C176.903 397.364 169.896 399.307 168.389 398.024L168.607 397.521C170.637 396.231 173.011 395.937 175.349 395.776Z" fill="var(--fill-0, #020202)"/>
<path id="Vector_54" d="M205.75 363.559C208.961 363.395 212.612 363.344 215.918 363.843C222.573 364.845 230.822 368.557 235.152 373.927C235.4 374.235 235.288 374.148 235.197 374.641L234.356 374.342C228.284 370.316 223.14 366.899 215.716 365.458C213.519 365.033 204.763 365.11 203.723 364.232C204.515 363.535 204.495 363.746 205.75 363.559Z" fill="var(--fill-0, #020202)"/>
<path id="Vector_55" d="M257.153 343.743L257.936 343.687C260.67 345.378 260.598 355.512 257.318 356.202C255.567 354.443 259.411 348.346 256.603 345.579L255.563 345.697C253.766 347.1 249.933 350.882 248.289 351.649C247.356 351.582 247.349 351.469 246.636 350.882C246.399 348.105 254.575 344.269 257.153 343.743Z" fill="var(--fill-0, #020202)"/>
<path id="Vector_56" d="M426.649 248.201C426.857 249.64 421.279 255.635 425.547 258.79C429.507 261.717 432.364 260.463 435.021 256.817C435.158 255.53 435.145 252.899 436.508 252.507C437.332 253.295 437.326 253.713 437.631 254.873C436.08 261.145 432.85 262.715 426.706 261.866C420.8 258.048 420.636 252.089 426.649 248.201Z" fill="var(--fill-0, #020202)"/>
<path id="Vector_57" d="M173.454 404.003C180.763 403.162 189.849 403.29 194.862 409.641C186.355 406.348 186.471 405.323 177.457 405.223C176.961 405.246 176.465 405.263 175.969 405.28C174.915 405.31 172.167 405.434 171.376 404.69C172.235 403.99 172.174 404.201 173.454 404.003Z" fill="var(--fill-0, #020202)"/>
<path id="Vector_58" d="M177.457 405.223C176.961 405.246 176.465 405.263 175.969 405.28C174.915 405.31 172.167 405.434 171.376 404.69C172.235 403.99 172.174 404.201 173.454 404.003C174.964 404.549 175.524 404.791 177.166 404.975L177.457 405.223Z" fill="var(--fill-0, #191819)"/>
<path id="Vector_59" d="M202.77 370.289C206.799 369.415 222.034 376.486 223.742 379.565C219.619 379.411 208.743 371.827 203.95 371.113C203.239 371.009 203.361 370.899 202.77 370.289Z" fill="var(--fill-0, #020202)"/>
<path id="Vector_60" d="M401.035 243.835C405.97 243.831 405.558 248.212 403.149 251.02C402.245 250.97 402.09 250.907 401.24 250.684C398.962 248.829 399.283 245.946 401.035 243.835Z" fill="var(--fill-0, #020202)"/>
<path id="Vector_61" d="M124.44 93.261L125.668 93.6657C126.807 95.146 127.314 101.46 125.939 102.655C124.901 102.594 124.52 102.54 123.5 102.329C122.971 100.8 123.417 94.5434 124.44 93.261Z" fill="var(--fill-0, #1B1A19)"/>
<path id="Vector_62" d="M408.851 266.199C409.022 266.317 409.397 266.712 409.561 266.875C410.161 272.054 406.834 276.905 401.317 274.926C400.874 274.052 400.898 273.984 400.717 273.058C401.501 272.031 402.781 273.928 405.032 273.351C407.507 271.518 407.45 268.844 408.851 266.199Z" fill="var(--fill-0, #020202)"/>
<path id="Vector_63" d="M401.652 236.9C405.568 236.68 408.141 238.813 406.509 242.803C406.224 242.625 405.866 242.319 405.595 242.104C404.811 237.075 404.208 239.525 401.588 237.696L401.652 236.9Z" fill="var(--fill-0, #020202)"/>
<path id="Vector_64" d="M94.1397 390.372C92.06 389.243 90.391 389.927 87.435 388.724L87.6219 388.483C91.1914 388.118 92.3213 388.195 95.876 388.831L94.5829 389.139C94.4841 389.726 94.4955 389.548 94.5387 390.178L94.1397 390.372Z" fill="var(--fill-0, #191819)"/>
<path id="Vector_65" d="M142.805 354.259C141.142 353.938 137.041 354.427 135.956 353.485C138.485 352.527 141.772 352.745 144.476 352.835L142.79 353.324C142.78 353.683 142.749 353.911 142.805 354.259Z" fill="var(--fill-0, #191819)"/>
<path id="Vector_66" d="M110.298 377.227C108.539 377.22 106.914 377.347 105.319 376.644L105.442 376.259C107.692 375.565 109.878 375.867 112.223 376.017L110.552 376.362C110.391 376.778 110.338 376.795 110.298 377.227Z" fill="var(--fill-0, #191819)"/>
<path id="Vector_67" d="M445.188 99.1627C445.982 97.9466 446.16 97.9342 447.952 97.5473C451.855 96.7045 462.206 96.9624 465.57 98.7496C466.621 100.162 466.668 109.296 466.407 111.224C465.945 112.618 465.965 114.781 465.905 116.316L457.553 190.4C456.588 199.053 456.029 208.824 454.9 217.235L454.22 218.063C454.099 219.467 454.119 219.888 453.516 221.145L453.235 221.123C453.077 219.283 452.732 217.153 452.531 215.237C452.548 212.246 453.211 206.872 453.526 203.782C454.173 197.064 454.896 190.353 455.694 183.651C458.166 164.633 460.32 145.575 462.149 126.485C462.809 119.252 463.931 107.845 463.995 100.708C459.509 100.099 455.208 99.6578 450.679 99.6045C449.078 99.5858 446.645 99.6906 445.188 99.1627Z" fill="var(--fill-0, #020202)"/>
<path id="Vector_68" d="M469.064 109.634C472.172 109.615 477.258 111.409 480.477 111.756C480.276 115.15 478.953 125.882 478.038 129.083C477.553 124.512 478.692 123.178 478.591 119.552L478.403 119.583C477.606 121.633 478.015 122.421 477.599 124.298C477.02 126.939 476.481 129.54 475.948 132.192C475.094 126.96 477.241 122.841 477.281 117.637C477.301 115.014 476.98 115.558 476.022 113.479L476.283 112.89L477.147 112.852L477.415 113.533L477.874 113.525L477.593 112.91C474.852 111.59 474.913 113.677 471.874 113.787C470.4 113.014 470.755 111.894 469.754 111.448C469.305 113.958 467.928 114.425 465.905 116.316C465.965 114.781 465.945 112.618 466.407 111.224L466.709 111.419C467.523 111.05 468.367 110.233 469.064 109.634Z" fill="var(--fill-0, #FEFEFE)"/>
<path id="Vector_69" d="M450.217 260.852L450.756 260.563C451.185 262.43 452.173 263.61 454.357 263.68C456.397 263.744 459.804 260.663 460.973 260.282C461.295 262.162 461.308 262.928 461.325 264.841C461.081 264.065 461.138 263.687 460.618 263.407C460.069 264.997 459.7 267.732 457.992 267.979L457.881 266.838L457.228 266.759C454.793 268.175 453.64 266.785 451.942 268.124C451.677 269.027 451.848 269.284 452.133 270.181L452.23 270.482L451.955 270.641C451.245 269.87 451.493 269.912 451.453 268.514C451.228 269.707 450.297 270.721 449.255 271.298C448.779 269.32 450.846 265.419 449.714 263.371L450.217 260.852Z" fill="var(--fill-0, #C6C7CB)"/>
<path id="Vector_70" d="M452.2 249.555L452.176 251.057L452.367 252.261C456.136 252.414 460.833 249.64 458.886 257.457C458.136 260.467 454.042 260.471 452.096 258.842C451.563 258.404 451.835 258.157 450.92 257.912C450.957 256.674 451.969 251.118 452.2 249.555ZM455.238 258.298C455.932 258.398 456.052 258.381 456.756 258.381C458.766 256.354 458.136 253.008 455.302 252.205C454.086 252.432 454.049 252.446 453.138 253.322C452.799 254.598 452.186 256.131 452.562 257.292C453.275 257.905 454.297 258.056 455.238 258.298Z" fill="var(--fill-0, #C6C7CB)"/>
<path id="Vector_71" d="M453.138 253.322C454.95 252.969 454.876 252.704 456.424 253.23C457.814 255.003 456.364 256.79 455.238 258.298C454.297 258.056 453.275 257.905 452.562 257.292C452.186 256.131 452.799 254.598 453.138 253.322Z" fill="var(--fill-0, #C6C7CB)"/>
<path id="Vector_72" d="M453.138 253.322C454.049 252.446 454.086 252.432 455.302 252.205C458.136 253.008 458.766 256.354 456.756 258.381C456.052 258.381 455.932 258.398 455.238 258.298C456.364 256.79 457.814 255.003 456.424 253.23C454.876 252.704 454.95 252.969 453.138 253.322Z" fill="var(--fill-0, #C6C7CB)"/>
<path id="Vector_73" d="M460.427 246.869C460.608 251.215 460.91 255.965 460.973 260.282C459.804 260.664 456.397 263.745 454.357 263.68C452.173 263.611 451.185 262.43 450.756 260.563L450.217 260.852C450.26 260.347 450.769 258.508 450.92 257.912C451.835 258.157 451.563 258.404 452.096 258.842C454.042 260.471 458.136 260.467 458.886 257.457C460.833 249.64 456.136 252.414 452.367 252.261L452.176 251.057L452.736 251.229C454.079 250.941 454.618 251.056 455.955 251.168C457.54 251.513 458.525 251.958 460.099 252.232L460.287 251.034L460.189 247.389L460.427 246.869Z" fill="var(--fill-0, #FEFEFE)"/>
<path id="Vector_74" d="M452.629 242.166C454.706 243.024 455.747 241.619 457.195 240.469C457.674 243.866 457.727 247.493 456.535 250.741L455.955 251.168C454.618 251.056 454.079 250.941 452.736 251.229C453.399 250.364 453.918 248.127 453.171 247.161L452.287 247.661L452.629 242.166Z" fill="var(--fill-0, #C6C7CB)"/>
<path id="Vector_75" d="M457.195 240.469L457.432 240.384C458.377 240.037 458.682 239.886 459.543 239.375L460.112 239.505C460.501 240.413 460.468 240.426 460.555 241.365C460.508 243.064 460.391 245.208 460.427 246.869L460.189 247.389C460.035 246.253 459.868 245.118 459.687 243.985L459.412 244.149C458.937 246.336 458.679 248.531 459.138 250.754L459.623 251.273C459.814 251.213 460.146 251.136 460.287 251.034L460.099 252.232C458.525 251.958 457.54 251.513 455.955 251.168L456.535 250.741C457.727 247.493 457.674 243.866 457.195 240.469Z" fill="var(--fill-0, #C6C7CB)"/>
<path id="Vector_76" d="M460.287 251.034C460.146 251.136 459.814 251.213 459.623 251.273L459.138 250.754C458.679 248.531 458.937 246.336 459.412 244.149L459.687 243.985C459.868 245.118 460.035 246.253 460.19 247.389L460.287 251.034Z" fill="var(--fill-0, #C6C7CB)"/>
<path id="Vector_77" d="M452.287 247.661L453.171 247.161C453.918 248.127 453.399 250.364 452.736 251.229L452.176 251.057L452.2 249.555L452.287 247.661Z" fill="var(--fill-0, #C6C7CB)"/>
<path id="Vector_78" d="M442.81 275.489L443.406 275.897C444.418 277.64 443.885 278.9 443.423 280.846C442.907 279.818 443.031 277.13 442.81 275.489Z" fill="var(--fill-0, #5D7078)"/>
</g>
</svg>
