<svg preserveAspectRatio="none" width="100%" height="100%" overflow="visible" style="display: block;" viewBox="0 0 189 189" fill="none" xmlns="http://www.w3.org/2000/svg">
<g id="Link [Vectorized]">
<path id="Vector" d="M107.577 112.722C105.344 114.242 103.174 115.086 100.467 115.051C93.2794 114.958 86.0795 115.123 78.8962 114.901C78.067 114.875 76.1895 114.498 75.5363 113.926C74.0766 112.104 73.3936 108.616 72.5778 106.518C71.866 104.733 71.0463 102.993 70.1234 101.308C67.9208 97.3505 64.4365 94.0952 61.5847 90.6011C48.0509 74.019 52.283 49.0929 70.0871 37.4547C78.3756 32.0366 84.8062 30.9096 94.521 31.029C93.8682 50.1371 94.2414 70.5121 94.2554 89.749L94.27 103.936C94.2717 106.117 94.4265 110.142 94.0417 112.074C97.6104 111.631 101.243 112.535 104.27 111.138C105.499 112.174 106.406 111.652 107.577 112.722ZM78.6799 110.951C79.6988 110.932 80.8545 110.887 81.8597 110.911C81.5118 107.184 81.5747 99.2318 81.8176 95.5192C80.3381 93.8213 79.5934 93.1617 77.8708 91.7302C76.3951 91.6303 74.603 91.6425 73.6279 90.3584C71.2211 87.189 76.2787 83.469 78.7574 86.6803C79.7855 88.0122 78.8866 88.9867 79.6832 90.1831C80.9566 91.9424 82.9732 92.885 84.0781 94.6836C84.1244 98.0897 84.1358 101.496 84.1122 104.903C84.1113 106.53 84.2611 109.511 83.9315 110.973C84.9082 110.947 85.9692 110.9 86.9382 110.902C86.699 108.92 86.7781 105.448 86.7861 103.313C86.7973 100.247 86.6851 96.5511 86.9564 93.5659C85.1674 92.0727 84.1336 91.2049 82.7312 89.368C82.6155 88.0266 82.6984 85.7067 82.567 84.7894C81.2401 84.1163 74.1327 79.4872 73.9911 78.4904C73.4307 74.5468 73.6738 67.1245 73.8265 63.0684C72.1921 62.5605 70.8058 61.8205 70.3964 60.0132C70.2139 58.4331 70.1598 57.8521 70.4715 56.2402C73.222 53.5869 75.6039 52.889 78.2669 55.6177C81.6648 59.0996 77.78 61.03 76.2484 63.827C75.9016 66.4974 76.0252 74.6565 76.0459 77.404C77.6748 78.6952 81.7455 81.7128 83.5352 82.5659C84.5971 81.5541 85.6487 80.5151 86.8091 79.6194C86.7929 76.4647 86.7294 73.1672 86.8477 70.0269C85.1078 68.7369 82.6897 67.1941 82.6137 64.9538C82.5125 61.98 82.3665 57.0664 82.6604 54.1858C80.2656 53.1407 79.4592 52.2216 78.7726 49.6688C79.1493 48.011 79.5908 46.6991 81.1641 45.7242C82.2532 45.0625 83.5616 44.8633 84.7982 45.1712C85.9928 45.4591 87.0482 46.1764 87.6807 47.2395C88.2846 48.2712 88.4494 49.5021 88.1384 50.6564C87.6563 52.3932 86.572 53.1337 85.2281 54.1878C84.7589 56.7707 84.9806 62.5009 84.9328 65.3183C86.2724 66.4702 88.4131 68.1648 89.3007 69.6028C89.3658 72.4638 89.4793 77.519 89.3003 80.3477C88.038 82.0435 86.7172 83.0039 85.0472 84.3047C84.5007 91.3341 86.3001 88.5219 89.3086 92.8051C89.3551 98.8418 89.359 104.879 89.3198 110.915C90.199 110.9 91.1046 110.871 91.9815 110.884C91.7434 108.452 91.8586 104.826 91.8665 102.305L91.9014 87.366L91.8042 35.2956L91.5345 35.1486C89.206 35.456 86.8025 35.4916 84.5199 35.9884C67.4937 39.7127 56.0834 55.9065 58.8997 73.2072C60.3879 82.3481 64.5579 87.1323 70.724 93.5694C74.2951 97.2972 78.5221 105.794 78.6799 110.951ZM74.3887 56.7295C73.4139 56.9499 72.7979 57.9134 73.0068 58.8905C73.2155 59.8678 74.1716 60.4951 75.1513 60.2978C75.7953 60.1681 76.3198 59.7022 76.5247 59.0778C76.7294 58.4536 76.5827 57.7676 76.1406 57.2816C75.6986 56.7956 75.0295 56.5846 74.3887 56.7295ZM84.0592 51.4632C84.7169 51.319 85.2455 50.831 85.4417 50.1871C85.6377 49.5431 85.4708 48.8434 85.0053 48.3571C84.5397 47.8709 83.8477 47.674 83.1958 47.8421C82.2132 48.0955 81.6146 49.0892 81.8499 50.0765C82.0852 51.0636 83.0679 51.6804 84.0592 51.4632Z" fill="var(--fill-0, #FF6B35)"/>
<path id="Vector_2" d="M67.1657 67.9606C68.1862 67.8394 69.8702 67.8776 70.6812 68.6129C72.5976 70.351 69.76 73.6591 69.8296 74.8034C69.9542 76.8554 70.2877 79.5326 70.562 81.5181C71.3565 82.4518 72.4402 82.8252 72.8565 83.8088C72.7836 84.5843 72.7408 84.4254 72.2257 85.1451C71.2349 85.3287 70.4961 84.6574 69.7966 84.0059C67.396 81.77 67.4699 77.0638 67.3407 74.0614C64.47 71.5433 64.1218 70.4868 67.1657 67.9606ZM68.554 71.9235C68.9252 71.8239 69.2102 71.5262 69.2938 71.1511C69.3772 70.7759 69.2456 70.3853 68.952 70.1375C68.6583 69.8896 68.2511 69.8254 67.8955 69.9706C67.3909 70.177 67.1334 70.7399 67.3076 71.2563C67.4817 71.7729 68.0274 72.0651 68.554 71.9235Z" fill="var(--fill-0, #FF6B35)"/>
<path id="Vector_3" d="M97.7287 34.4331C100.979 35.6429 102.27 36.151 103.843 39.4347C108.792 34.6095 116.157 36.7616 117.702 43.2574C119.52 41.635 121.608 40.6097 124.115 40.7548C126.406 40.8803 128.553 41.9109 130.083 43.6202C130.9 44.5446 131.74 45.86 131.797 47.1143C131.821 47.6681 131.714 47.9848 132.012 48.1293C134.9 46.8997 136.39 45.9899 139.597 47.3292C143.072 48.7803 144.701 51.8895 144.46 55.4741C148.202 54.1275 152.133 54.6559 154.077 58.501C156.821 62.8185 154.546 65.672 151.673 68.9501C151.633 72.8955 151.636 76.8411 151.681 80.7862C151.69 83.0201 151.794 86.1201 151.431 88.2571C149.658 90.036 143.428 93.115 140.944 94.4655L127.846 101.613C121.053 105.29 114.437 109.099 107.577 112.722C106.406 111.652 105.499 112.174 104.27 111.138C111.634 106.857 119.709 102.876 127.118 98.6024C129.811 97.0497 133.84 95.16 136.299 93.5053C139.687 91.9544 144.9 88.9 148.361 87.0483C148.602 85.4513 148.495 81.0795 148.469 79.3817C148.439 77.3407 148.753 69.1546 147.882 67.8848C147.315 67.763 146.021 68.2373 145.527 68.5175C138.869 72.291 131.672 75.7386 125.122 79.6537C122.472 80.7886 119.334 82.7318 116.711 84.0925C110.606 87.2593 104.162 91.1737 98.0329 94.1958C98.0345 92.7316 98.1604 89.842 98.0367 88.5567C97.9092 87.6253 97.9683 85.2405 97.9719 84.2226L98.0048 76.2932C98.0386 66.9745 98.1829 57.0915 97.9505 47.807C97.9943 46.5673 98.0768 45.5261 97.8708 44.2993C97.8789 42.6313 97.8588 40.9632 97.8101 39.2959C97.6192 37.7941 97.6067 35.9427 97.7287 34.4331Z" fill="var(--fill-0, #F91418)"/>
<path id="Vector_4" d="M97.9505 47.807C111.996 50.4528 125.356 54.2692 138.323 60.3741C140.2 61.2581 142.563 62.6035 144.495 63.217C140.991 65.5184 135.143 68.4771 131.34 70.516L112.418 80.8123L102.511 86.2141C101.716 86.6478 98.6814 88.3605 98.0367 88.5567C97.9092 87.6253 97.9683 85.2405 97.972 84.2226L98.0048 76.2932C98.0386 66.9745 98.1829 57.0915 97.9505 47.807Z" fill="var(--fill-0, #FE7F25)"/>
<path id="Vector_5" d="M117.753 61.7216C118.175 60.9671 118.54 60.1085 119.264 59.6919C120.068 59.6197 119.779 59.5972 120.528 59.9309C121.495 59.0811 123.225 59.9916 123.885 60.9091C124.834 62.2294 125.027 63.1605 124.794 64.7532C124.76 64.9828 124.722 65.2116 124.681 65.44C122.1 68.3469 119.331 68.7388 117.21 65.0435C117.167 63.9761 116.96 62.5378 117.753 61.7216Z" fill="var(--fill-0, #F91418)"/>
<path id="Vector_6" d="M117.753 61.7216C118.175 60.9671 118.54 60.1085 119.264 59.6919C120.068 59.6197 119.779 59.5972 120.528 59.9309C121.241 62.124 119.444 63.3899 117.753 61.7216Z" fill="var(--fill-0, #FE9A5B)"/>
<path id="Vector_7" d="M109.475 70.9093C111.603 69.9915 113.864 73.4701 112.775 75.3774C110.836 78.7715 106.477 76.9941 106.989 73.1467L107.217 72.8172L107.393 72.7881C107.984 72.0166 107.721 71.7316 108.427 70.9867C108.881 70.8392 108.995 70.8669 109.475 70.9093Z" fill="var(--fill-0, #F91418)"/>
<path id="Vector_8" d="M107.393 72.7881C107.984 72.0166 107.721 71.7316 108.427 70.9867C108.881 70.8392 108.995 70.8669 109.475 70.9093C110.249 72.7434 109.051 73.5407 107.393 72.7881Z" fill="var(--fill-0, #FE9A5B)"/>
<path id="Vector_9" d="M110.543 53.7855C111.716 53.5618 112.849 54.3266 113.081 55.4979C113.313 56.6692 112.555 57.8078 111.385 58.047C110.205 58.2884 109.053 57.5224 108.82 56.3401C108.586 55.1579 109.359 54.0114 110.543 53.7855Z" fill="var(--fill-0, #F91418)"/>
<path id="Vector_10" d="M102.086 64.289C102.89 63.9484 103.819 64.3028 104.192 65.092C104.566 65.8813 104.249 66.8244 103.476 67.2294C102.947 67.5064 102.308 67.4715 101.813 67.1382C101.317 66.8049 101.044 66.2268 101.101 65.6321C101.158 65.0376 101.536 64.5219 102.086 64.289Z" fill="var(--fill-0, #F91418)"/>
<path id="Vector_11" d="M97.7287 34.4331C100.979 35.6429 102.27 36.151 103.843 39.4347C108.792 34.6095 116.157 36.7616 117.702 43.2574C119.52 41.635 121.608 40.6097 124.115 40.7548C126.406 40.8803 128.553 41.9109 130.083 43.6202C130.9 44.5446 131.74 45.86 131.797 47.1143C131.821 47.6681 131.714 47.9848 132.012 48.1293C134.9 46.8997 136.39 45.9899 139.597 47.3292C143.072 48.7803 144.701 51.8895 144.46 55.4741C148.202 54.1275 152.133 54.6559 154.077 58.501C150.241 57.8558 149.178 57.0937 145.794 59.932C144.084 59.054 142.261 58.226 140.525 57.3812C137.56 55.9617 134.149 54.7532 131.005 53.2786C130.311 52.9316 128.768 52.4521 127.968 52.1808C124.572 50.9296 121.48 49.7336 117.967 48.8427C116.786 48.482 115.597 48.147 114.402 47.8375C111.305 46.9213 100.827 44.1789 97.8708 44.2993C97.8789 42.6313 97.8588 40.9632 97.8101 39.2959C97.6192 37.7941 97.6067 35.9427 97.7287 34.4331Z" fill="var(--fill-0, #FF973E)"/>
<path id="Vector_12" d="M97.8101 39.2959C99.7307 39.8293 100.421 41.2882 101.431 42.9357C102.435 43.2301 103.444 43.5132 104.455 43.7852C105.629 42.3978 106.777 41.5296 108.677 41.376C110.034 41.2666 111.379 41.6976 112.419 42.5748C113.653 43.6291 114.208 45.0169 114.447 46.5953C114.173 47.3395 114.209 47.0455 114.402 47.8375C111.305 46.9213 100.827 44.1789 97.8708 44.2993C97.8789 42.6313 97.8588 40.9632 97.8101 39.2959Z" fill="var(--fill-0, #F55E1C)"/>
<path id="Vector_13" d="M118.705 47.9872C119.32 45.5628 121.986 44.7941 124.202 45.3702C125.622 45.7417 126.829 46.6747 127.546 47.9547C128.147 49.0034 128.225 49.8561 128.263 51.0341C127.961 51.535 127.93 51.5998 127.968 52.1808C124.572 50.9296 121.48 49.7336 117.967 48.8427C118.385 48.551 118.437 48.4264 118.705 47.9872Z" fill="var(--fill-0, #F55E1C)"/>
<path id="Vector_14" d="M132.167 52.6873C133.289 51.6603 134.363 51.0809 135.945 51.1391C137.294 51.1948 138.563 51.795 139.461 52.8024C140.661 54.1406 140.965 55.6714 140.525 57.3812C137.56 55.9617 134.149 54.7532 131.005 53.2786C131.639 53.1802 131.712 53.1563 132.167 52.6873Z" fill="var(--fill-0, #F55E1C)"/>
<path id="Vector_15" d="M114.447 46.5953C116.315 46.7478 117.201 46.7675 118.705 47.9872C118.437 48.4264 118.385 48.551 117.967 48.8427C116.786 48.482 115.597 48.147 114.402 47.8375C114.209 47.0455 114.173 47.3395 114.447 46.5953Z" fill="var(--fill-0, #FE7F25)"/>
<path id="Vector_16" d="M128.263 51.0341C129.986 51.4909 130.744 51.5802 132.167 52.6873C131.712 53.1563 131.639 53.1802 131.005 53.2786C130.311 52.9316 128.768 52.4521 127.968 52.1808C127.93 51.5998 127.961 51.535 128.263 51.0341Z" fill="var(--fill-0, #FE7F25)"/>
<path id="Vector_17" d="M123.237 42.4986C125.459 42.078 128.281 43.1749 128.517 45.6991C128.476 45.6856 128.26 45.6201 128.157 45.5627C126.589 44.6878 124.987 43.8491 123.408 42.9953C123.339 42.795 123.282 42.6295 123.237 42.4986Z" fill="var(--fill-0, #FECBB2)"/>
<path id="Vector_18" d="M108.903 38.6341C110.686 38.5267 114.62 38.8843 114.153 41.4774C113.51 41.19 109.028 39.1922 108.848 39.058L108.903 38.6341Z" fill="var(--fill-0, #FECBB2)"/>
<path id="Vector_19" d="M136.084 48.7633C138.285 48.2646 140.631 49.2566 141.258 51.5551C140.744 51.5466 136.467 49.1387 136.084 48.7633Z" fill="var(--fill-0, #FECBB2)"/>
<path id="Vector_20" d="M142.051 73.0924C146.908 70.5928 145.971 72.4152 145.789 76.9027C145.86 79.0882 146.053 83.2098 145.535 85.23C143.85 86.6096 141.236 87.906 139.306 89.0024C135.108 91.3876 129.919 93.8236 125.886 96.3837C120.404 99.0329 115.103 102.358 109.717 105.217C105.033 107.702 103.028 109.638 97.5452 109.815C97.4456 108.197 97.4341 106.982 97.469 105.359C97.4199 103.063 97.3581 100.228 97.5194 97.9745C99.1986 96.1054 106.834 92.3367 109.364 90.9476L132.242 78.4636C135.448 76.7054 138.95 74.9756 142.051 73.0924Z" fill="var(--fill-0, #F91418)"/>
<path id="Vector_21" d="M142.051 73.0924C146.908 70.5928 145.971 72.4152 145.789 76.9027C142.891 78.0273 142.653 80.4872 140.409 81.9605C138.771 83.0354 135.787 82.2462 133.977 83.182C131.705 84.3575 131.323 86.9112 129.15 88.1355C127.2 89.234 123.899 88.3125 122.155 89.7113C120.162 91.3103 120.016 93.1299 117.66 94.6477C116.668 94.7855 115.103 94.8968 114.123 94.8555C109.799 94.6394 110.647 99.9042 106.862 100.362C104.546 100.643 102.051 100.088 100.554 102.237C100.011 103.018 98.4797 105.285 97.469 105.359C97.4199 103.063 97.3581 100.228 97.5194 97.9745C99.1986 96.1054 106.834 92.3367 109.364 90.9476L132.242 78.4636C135.448 76.7054 138.95 74.9756 142.051 73.0924Z" fill="var(--fill-0, #FECBB2)"/>
<path id="Vector_22" d="M119.094 146.999C122.915 146.971 127.958 146.769 130.562 150.016C133.116 153.202 132.651 159.099 129.316 161.599C126.089 164.018 121.913 164.128 118.099 163.682C118.356 165.672 118.294 169.931 118.111 171.951C116.738 171.737 114.488 172.145 113.419 171.486C112.652 169.897 112.969 150.411 112.993 147.313C115.025 147.147 117.057 147.08 119.094 146.999ZM118.138 159.701C120.91 159.462 122.984 159.946 125.249 158.459C127.093 156.824 127.366 154.411 125.693 152.485C124.127 150.682 120.389 151.323 118.15 151.053C118.302 153.57 118.251 157.149 118.138 159.701Z" fill="var(--fill-0, white)"/>
<path id="Vector_23" d="M41.2622 146.242C43.3266 146.086 49.6011 146.478 50.8015 148.302C51.1426 149.658 50.4837 150.687 49.9161 151.988C45.8371 150.443 39.312 149.664 36.3247 153.622C33.4833 157.386 33.8092 163.686 37.8006 166.556C40.6239 168.586 43.6944 168.181 46.8731 167.684C46.7675 165.761 46.8356 163.814 46.875 161.887C46.6241 161.93 46.3711 161.961 46.1171 161.979C44.3452 162.114 39.9659 162.087 42.3679 158.763C42.963 157.94 43.9355 158.013 44.8999 158.004C46.2245 157.985 49.8735 157.74 51.1688 158.187C51.3563 158.252 51.5464 159.025 51.5669 159.334C51.7148 161.568 51.9918 168.446 51.3572 170.228C50.2755 171.616 46.393 172.054 45.0817 172.246C37.5774 173.342 29.8858 169.97 29.0307 161.655C28.1221 152.82 32.3007 147.257 41.2622 146.242Z" fill="var(--fill-0, #FF6B35)"/>
<path id="Vector_24" d="M92.4498 145.704L93.2228 145.644C95.1381 145.503 97.3082 145.131 97.4393 147.669C97.5386 149.59 97.5083 151.46 97.5024 153.382C97.4915 156.196 97.5201 159.011 97.5882 161.825C99.685 159.673 102.371 154.452 105.152 153.881C106.109 153.685 108.412 153.955 110.197 153.633C108.517 155.778 104.977 160.201 103.069 162.05C104.569 163.681 107.048 167.084 108.398 168.955C109.209 170.14 109.747 170.845 110.683 171.934C108.516 171.888 106.764 172.039 104.61 171.696C102.844 170.235 99.5895 165.06 97.6412 162.749C97.3869 165.506 97.4758 169.024 97.4792 171.852C96.2156 171.813 93.4882 172.164 92.6342 171.344C92.1958 169.626 92.0078 146.69 92.4498 145.704Z" fill="var(--fill-0, #FF6B35)"/>
<path id="Vector_25" d="M61.2722 153.602C66.3541 153.139 70.3506 154.976 71.0407 160.484C71.5321 164.407 68.5481 164.014 65.6496 164.295C63.5171 164.503 61.0012 164.737 58.8674 164.726L59.9968 167.01C63.4796 169.575 65.9488 167.795 69.4302 167.6C69.9448 168.457 70.609 169.423 70.4662 170.436C69.9841 171.213 69.0959 171.552 68.2281 171.771C62.8189 173.136 55.7596 172.464 54.0785 166.045C53.4326 163.578 53.7197 159.864 55.0413 157.634C56.5254 155.13 58.5714 154.264 61.2722 153.602ZM58.6764 161.379C59.9231 161.291 61.8984 161.218 63.0782 161.062C64.1721 160.926 65.2666 160.796 66.3619 160.672C65.6685 157.95 64.9606 157.154 61.9088 157.448C59.614 158.233 59.535 159.23 58.6764 161.379Z" fill="var(--fill-0, #FF6B35)"/>
<path id="Vector_26" d="M79.925 153.61C80.0051 153.601 80.0854 153.594 80.1659 153.588C85.3835 153.183 89.2519 155.489 89.8474 160.974C90.0022 163.051 88.8697 163.854 86.9527 164.007C83.749 164.263 80.4169 164.721 77.2209 164.707C80.4433 170.321 82.8322 167.907 87.8433 167.676C88.3529 168.259 89.4134 169.979 88.8715 170.499C86.2021 173.057 78.7741 172.796 76.0747 170.838C71.6373 167.618 71.4376 161.295 74.0433 157.07C75.323 154.995 77.7117 154.047 79.925 153.61ZM77.1904 161.409C78.3702 161.319 80.4679 161.228 81.5672 161.06C82.6702 160.938 83.8573 160.785 84.9553 160.695C84.7122 159.938 84.358 158.707 84.0345 158.021C82.5159 157.502 82.0441 157.336 80.3957 157.457C78.5086 158.265 78.3113 158.593 77.5397 160.518C77.4213 160.814 77.3049 161.111 77.1904 161.409Z" fill="var(--fill-0, #FF6B35)"/>
<path id="Vector_27" d="M149.799 153.619C155.059 153.193 159.135 154.735 159.744 160.646C160.114 164.245 157.246 163.885 154.549 164.178C152.282 164.425 149.803 164.605 147.51 164.672C149.857 169.462 151.737 168.47 156.387 167.785C157.152 167.672 157.653 167.511 158.362 167.798C158.823 168.427 159.17 169.273 159.498 169.992C156.76 172.802 149.991 172.872 146.652 171.048C142.116 168.569 141.24 162.005 143.656 157.764C145.115 155.204 147.097 154.307 149.799 153.619ZM147.305 161.383C148.601 161.278 149.921 161.153 151.218 161.111L155.11 160.655C154.88 159.902 154.588 158.836 154.298 158.132C153.165 157.684 152.631 157.422 151.401 157.328C148.546 157.749 148.328 158.912 147.305 161.383Z" fill="var(--fill-0, white)"/>
<path id="Vector_28" d="M78.0299 116.905C81.4815 116.79 102.08 116.465 103.937 117.229C104.161 117.322 104.341 117.604 104.426 117.822C104.716 118.564 104.746 119.502 104.436 120.235C104.061 120.734 103.487 120.817 102.873 120.995C99.2472 121.253 94.5068 120.997 90.7735 121.075C86.8726 121.076 82.9998 121.118 79.1006 120.98C76.1674 120.876 75.674 118.473 78.0299 116.905Z" fill="var(--fill-0, #F55E1C)"/>
<path id="Vector_29" d="M78.7478 123.162C86.1379 122.952 93.5845 123.178 100.977 123.059C104.497 123.002 106.283 125.458 102.85 127.337C98.9282 127.356 79.4778 127.83 77.5902 127.015C77.3721 126.921 77.1624 126.573 77.0766 126.351C76.7824 125.594 76.7934 124.752 77.1074 124.003C77.5136 123.453 78.0845 123.364 78.7478 123.162Z" fill="var(--fill-0, #B83B10)"/>
<path id="Vector_30" d="M134.628 153.759C136.378 153.807 138.038 153.472 139.41 154.604C139.935 155.695 139.812 170.108 139.665 172.056C138.718 171.797 135.707 172.144 135.173 171.549C134.148 170.407 134.55 156.194 134.628 153.759Z" fill="var(--fill-0, white)"/>
<path id="Vector_31" d="M98.3863 129.318C98.5421 129.346 98.5511 129.413 98.7095 129.565C98.6694 130.135 98.3651 130.593 98.0445 131.06C94.9836 135.513 89.504 135.795 85.1535 132.865C83.9487 131.918 83.2486 130.649 82.4909 129.347C85.9629 129.534 94.9439 129.512 98.3863 129.318Z" fill="var(--fill-0, #B83B10)"/>
<path id="Vector_32" d="M84.277 13.257C85.3064 13.3624 85.6833 13.991 86.3274 14.7588C86.3381 18.1401 87.7292 21.8771 87.1406 25.3415C87.047 25.8923 86.5107 26.1911 86.0535 26.4725C85.2992 26.4759 84.744 26.4319 84.1881 25.9111C83.6198 24.7459 83.0345 16.4137 82.95 14.6117C82.9232 14.0452 83.7779 13.5501 84.277 13.257Z" fill="var(--fill-0, #FF6B35)"/>
<path id="Vector_33" d="M51.2932 28.2267C51.96 28.2524 52.6629 28.4255 53.157 28.8694C54.7251 30.2778 61.0642 35.226 60.8619 37.188C60.5385 37.8676 60.3753 37.9482 59.7631 38.3963C58.8818 38.4102 58.377 38.3581 57.7428 37.6909C56.3351 36.2105 50.1998 31.333 50.2315 29.5595C50.3894 28.8963 50.767 28.6695 51.2932 28.2267Z" fill="var(--fill-0, #FF6B35)"/>
<path id="Vector_34" d="M36.0147 60.3237C38.3469 60.1858 43.8976 61.2557 46.568 61.5581C48.1298 62.6151 48.6444 63.5245 46.9026 64.8288C46.7319 64.837 46.5612 64.841 46.3903 64.8408C44.8172 64.8375 30.9779 63.9335 36.0147 60.3237Z" fill="var(--fill-0, #FF6B35)"/>
<path id="Vector_35" d="M65.8198 18.3756C66.0047 18.3945 66.4628 18.4664 66.5751 18.5656C68.1738 19.9777 71.8071 27.3522 72.2534 29.2308C72.1869 29.8587 71.7137 30.1817 71.2397 30.6246C71.049 30.6274 70.8421 30.5693 70.6498 30.5296C69.2229 29.2406 64.8647 21.1758 64.7574 19.5805C64.8717 19.024 65.3652 18.7335 65.8198 18.3756Z" fill="var(--fill-0, #FF6B35)"/>
<path id="Vector_36" d="M41.5684 43.5488C44.2306 44.4898 49.5119 47.0756 51.7908 48.7757C52.1681 49.0571 52.1328 49.3846 52.1437 49.7775C51.8918 50.3668 51.448 50.5739 50.9056 50.9253C49.0496 50.5562 42.5575 46.8281 40.6544 45.7633C40.1965 45.5071 40.2644 45.0747 40.3113 44.6206C40.671 44.0208 40.965 43.9019 41.5684 43.5488Z" fill="var(--fill-0, #FF6B35)"/>
<path id="Vector_37" d="M100.71 15.8797C101.049 15.9699 101.447 16.1371 101.78 16.2653C101.987 16.5129 102.241 16.7593 102.161 17.1201C101.553 19.8544 100.452 26.1045 98.5331 28.0109C97.9522 27.9098 97.8697 27.8989 97.4505 27.4916C96.4786 25.5993 99.0642 18.9764 99.7549 16.8061C99.8239 16.5889 100.492 16.0468 100.71 15.8797Z" fill="var(--fill-0, #FF6B35)"/>
<path id="Vector_38" d="M46.9451 74.9503C47.9516 74.9444 48.6548 75.1843 48.7323 76.2595C47.8569 78.158 40.6819 78.5574 38.1821 79.4819C38.0171 79.4821 37.4997 79.48 37.3581 79.4348C36.9569 79.3041 36.6422 78.9894 36.5113 78.5882C35.7524 76.2988 45.248 75.5264 46.9451 74.9503Z" fill="var(--fill-0, #FF6B35)"/>
<path id="Vector_39" d="M52.2028 88.6152C53.1797 88.5048 53.8303 88.749 53.8303 89.8032C52.9156 91.3841 46.5176 94.0912 44.5355 94.9755C43.9296 95.1652 43.5909 94.9072 43.1793 94.4841C43.101 94.0657 43.0006 93.8607 43.31 93.4546C44.5093 91.8811 50.4233 89.0607 52.2028 88.6152Z" fill="var(--fill-0, #FF6B35)"/>
<path id="Vector_40" d="M136.234 146.381C140.225 145.881 141.852 150.453 137.914 151.545C134.223 152.521 132.739 148.008 136.234 146.381Z" fill="var(--fill-0, white)"/>
<g id="Rectangle 1">
<mask id="path-41-inside-1_57_8175" fill="white">
<path d="M20 0H168V189H20V0Z"/>
</mask>
<path d="M20 0V-2H18V0H20ZM168 0H170V-2H168V0ZM168 189V191H170V189H168ZM20 189H18V191H20V189ZM20 0V2H168V0V-2H20V0ZM168 0H166V189H168H170V0H168ZM168 189V187H20V189V191H168V189ZM20 189H22V0H20H18V189H20Z" fill="var(--stroke-0, #FF6B35)" mask="url(#path-41-inside-1_57_8175)"/>
</g>
</g>
</svg>
