<svg preserveAspectRatio="none" width="100%" height="100%" overflow="visible" style="display: block;" viewBox="0 0 15.5452 15.5017" fill="none" xmlns="http://www.w3.org/2000/svg">
<path id="Vector" d="M15.5438 12.8443L15.4585 0.994599C15.4585 0.483099 15.0607 0.0852995 14.5492 0.0852995L2.69955 0C2.18805 0 1.79015 0.3979 1.79015 0.9094C1.79015 1.4209 2.18805 1.8187 2.69955 1.8187L12.3327 1.904L0.25575 13.981C-0.08525 14.322 -0.08525 14.8903 0.25575 15.2313C0.59675 15.5723 1.19345 15.6007 1.53445 15.2597L13.6683 3.1259L13.7535 12.8727C13.7535 13.1001 13.8672 13.3274 14.0377 13.4979C14.2082 13.6684 14.4355 13.7821 14.6913 13.7537C15.1459 13.7537 15.5722 13.3274 15.5438 12.8443Z" fill="var(--fill-0, #121212)"/>
</svg>
