<svg preserveAspectRatio="none" width="100%" height="100%" overflow="visible" style="display: block;" viewBox="0 0 915.981 605" fill="none" xmlns="http://www.w3.org/2000/svg">
<g id="Play video" clip-path="url(#clip0_53_8131)">
<g id="Group">
<path id="Vector" d="M864.041 1.1263H65.157C36.4706 1.1263 13.2157 24.3887 13.2157 53.0842V551.945C13.2157 580.641 36.4706 603.903 65.157 603.903H864.041C892.727 603.903 915.982 580.641 915.982 551.945V53.0842C915.982 24.3887 892.727 1.1263 864.041 1.1263Z" fill="var(--fill-0, black)"/>
<path id="Vector_2" d="M851.951 1.1263H53.0673C24.3809 1.1263 1.12594 24.3887 1.12594 53.0842V551.945C1.12594 580.641 24.3809 603.903 53.0673 603.903H851.951C880.637 603.903 903.892 580.641 903.892 551.945V53.0842C903.892 24.3887 880.637 1.1263 851.951 1.1263Z" fill="var(--fill-0, white)" stroke="var(--stroke-0, black)" stroke-width="0.75" stroke-miterlimit="10"/>
<path id="Vector_3" d="M65.1274 1.1263H864.041C892.693 1.1263 915.982 24.3933 915.982 53.0842V81.212H13.2157V53.0842C13.2157 24.3933 36.4752 1.1263 65.1274 1.1263Z" fill="var(--fill-0, black)"/>
<path id="Vector_4" d="M53.0377 1.1263H851.951C880.603 1.1263 903.892 24.3933 903.892 53.0842V81.212H1.12594V53.0842C1.12594 24.3933 24.3855 1.1263 53.0377 1.1263Z" fill="var(--fill-0, #FF6B35)" stroke="var(--stroke-0, black)" stroke-width="0.75" stroke-miterlimit="10"/>
<path id="Vector_5" d="M63.883 59.427C72.9815 59.427 80.3572 52.0489 80.3572 42.9475C80.3572 33.8461 72.9815 26.468 63.883 26.468C54.7845 26.468 47.4087 33.8461 47.4087 42.9475C47.4087 52.0489 54.7845 59.427 63.883 59.427Z" fill="var(--fill-0, #FBF9ED)" stroke="var(--stroke-0, black)" stroke-width="0.75" stroke-miterlimit="10"/>
<path id="Vector_6" d="M113.305 59.4271C122.404 59.4271 129.779 52.0489 129.779 42.9475C129.779 33.8461 122.404 26.468 113.305 26.468C104.207 26.468 96.8308 33.8461 96.8308 42.9475C96.8308 52.0489 104.207 59.4271 113.305 59.4271Z" fill="var(--fill-0, #FBF9ED)" stroke="var(--stroke-0, black)" stroke-width="0.75" stroke-miterlimit="10"/>
<path id="Vector_7" d="M162.727 59.427C171.825 59.427 179.201 52.0489 179.201 42.9475C179.201 33.8461 171.825 26.468 162.727 26.468C153.628 26.468 146.252 33.8461 146.252 42.9475C146.252 52.0489 153.628 59.427 162.727 59.427Z" fill="var(--fill-0, #FBF9ED)" stroke="var(--stroke-0, black)" stroke-width="0.75" stroke-miterlimit="10"/>
</g>
<path id="Vector_8" d="M826.381 122.5H665.401C644.553 122.5 627.653 139.406 627.653 160.26V311.777C627.653 332.632 644.553 349.538 665.401 349.538H826.381C847.229 349.538 864.13 332.632 864.13 311.777V160.26C864.13 139.406 847.229 122.5 826.381 122.5Z" fill="var(--fill-0, #FF6B35)"/>
<path id="Vector_9" d="M826.381 369.515H665.401C644.553 369.515 627.653 386.421 627.653 407.275V520.083C627.653 540.938 644.553 557.844 665.401 557.844H826.381C847.229 557.844 864.13 540.938 864.13 520.083V407.275C864.13 386.421 847.229 369.515 826.381 369.515Z" fill="var(--fill-0, #FF6B35)"/>
<path id="Vector_10" d="M528.242 122.678H81.511C61.4649 122.678 45.2143 138.933 45.2143 158.986V403.6C45.2143 423.653 61.4649 439.908 81.511 439.908H528.242C548.288 439.908 564.539 423.653 564.539 403.6V158.986C564.539 138.933 548.288 122.678 528.242 122.678Z" fill="var(--fill-0, #FF6B35)"/>
<path id="Vector_11" d="M531.146 461.99H78.6073C60.1649 461.99 45.2143 476.945 45.2143 495.393V519.876C45.2143 538.324 60.1649 553.279 78.6073 553.279H531.146C549.588 553.279 564.539 538.324 564.539 519.876V495.393C564.539 476.945 549.588 461.99 531.146 461.99Z" fill="var(--fill-0, white)" stroke="var(--stroke-0, black)" stroke-width="0.75" stroke-miterlimit="10"/>
<path id="Vector_12" d="M304.863 349.745C342.648 349.745 373.279 319.105 373.279 281.308C373.279 243.511 342.648 212.87 304.863 212.87C267.078 212.87 236.447 243.511 236.447 281.308C236.447 319.105 267.078 349.745 304.863 349.745Z" stroke="var(--stroke-0, black)" stroke-miterlimit="10"/>
<path id="Vector_13" d="M279.085 253.891V308.695C279.085 316.846 287.944 321.884 294.937 317.705L340.893 290.318C347.708 286.258 347.708 276.358 340.893 272.297L294.937 244.911C287.944 240.731 279.085 245.77 279.085 253.921V253.891Z" fill="var(--fill-0, black)"/>
<path id="Vector_14" d="M96.9801 497.112V519.046C96.9801 522.306 100.536 524.321 103.321 522.662L121.721 511.695C124.447 510.065 124.447 506.093 121.721 504.493L103.321 493.526C100.536 491.866 96.9801 493.882 96.9801 497.142V497.112Z" fill="var(--fill-0, black)"/>
<path id="Vector_15" d="M503.68 500.047H154.254C150.637 500.047 147.705 502.979 147.705 506.597V509.205C147.705 512.823 150.637 515.756 154.254 515.756H503.68C507.297 515.756 510.228 512.823 510.228 509.205V506.597C510.228 502.979 507.297 500.047 503.68 500.047Z" fill="var(--fill-0, #FF6B35)"/>
<path id="Vector_16" d="M305.633 500.225H154.254C150.637 500.225 147.705 503.157 147.705 506.775V509.383C147.705 513.001 150.637 515.934 154.254 515.934H305.633C309.25 515.934 312.181 513.001 312.181 509.383V506.775C312.181 503.157 309.25 500.225 305.633 500.225Z" fill="var(--fill-0, black)"/>
<g id="Group_2">
<path id="Vector_17" d="M805.907 110.822H644.927C624.079 110.822 607.178 127.728 607.178 148.582V300.099C607.178 320.954 624.079 337.86 644.927 337.86H805.907C826.755 337.86 843.655 320.954 843.655 300.099V148.582C843.655 127.728 826.755 110.822 805.907 110.822Z" fill="var(--fill-0, white)" stroke="var(--stroke-0, black)" stroke-width="0.75" stroke-miterlimit="10"/>
<g id="Group_3">
<g id="Vector_18">
<path d="M667.328 200.777V147.397H720.099V200.777" fill="var(--fill-0, white)"/>
<path d="M667.328 200.777V147.397H720.099V200.777" stroke="var(--stroke-0, black)" stroke-linecap="round" stroke-linejoin="round"/>
</g>
<path id="Vector_19" d="M658.586 211.892C664.723 211.892 669.698 206.916 669.698 200.777C669.698 194.639 664.723 189.663 658.586 189.663C652.45 189.663 647.475 194.639 647.475 200.777C647.475 206.916 652.45 211.892 658.586 211.892Z" fill="var(--fill-0, black)"/>
<path id="Vector_20" d="M711.387 211.892C717.524 211.892 722.498 206.916 722.498 200.777C722.498 194.639 717.524 189.663 711.387 189.663C705.25 189.663 700.276 194.639 700.276 200.777C700.276 206.916 705.25 211.892 711.387 211.892Z" fill="var(--fill-0, black)"/>
<path id="Vector_21" d="M720.099 147.397H667.328V161.061H720.099V147.397Z" fill="var(--fill-0, black)"/>
</g>
<path id="Vector_22" d="M806.203 243.458H652.216C648.747 243.458 645.934 246.271 645.934 249.742V252.202C645.934 255.672 648.747 258.485 652.216 258.485H806.203C809.672 258.485 812.484 255.672 812.484 252.202V249.742C812.484 246.271 809.672 243.458 806.203 243.458Z" fill="var(--fill-0, #FF6B35)"/>
<path id="Vector_23" d="M760.158 280.389H652.216C648.747 280.389 645.934 283.202 645.934 286.673V289.133C645.934 292.603 648.747 295.416 652.216 295.416H760.158C763.627 295.416 766.44 292.603 766.44 289.133V286.673C766.44 283.202 763.627 280.389 760.158 280.389Z" fill="var(--fill-0, #FF6B35)"/>
</g>
<g id="Group_4">
<path id="Vector_24" d="M805.907 357.866H644.927C624.079 357.866 607.178 374.772 607.178 395.627V508.435C607.178 529.289 624.079 546.195 644.927 546.195H805.907C826.755 546.195 843.655 529.289 843.655 508.435V395.627C843.655 374.772 826.755 357.866 805.907 357.866Z" fill="var(--fill-0, white)" stroke="var(--stroke-0, black)" stroke-width="0.75" stroke-miterlimit="10"/>
<path id="Vector_25" d="M806.203 459.826H652.216C648.747 459.826 645.934 462.639 645.934 466.11V468.57C645.934 472.04 648.747 474.853 652.216 474.853H806.203C809.672 474.853 812.484 472.04 812.484 468.57V466.11C812.484 462.639 809.672 459.826 806.203 459.826Z" fill="var(--fill-0, #FF6B35)"/>
<path id="Vector_26" d="M760.158 496.727H652.216C648.747 496.727 645.934 499.54 645.934 503.011V505.471C645.934 508.941 648.747 511.754 652.216 511.754H760.158C763.627 511.754 766.44 508.941 766.44 505.471V503.011C766.44 499.54 763.627 496.727 760.158 496.727Z" fill="var(--fill-0, #FF6B35)"/>
<path id="Vector_27" d="M723.388 398.917H659.387C652.694 398.917 647.268 404.345 647.268 411.04V415.841C647.268 422.536 652.694 427.964 659.387 427.964H723.388C730.081 427.964 735.507 422.536 735.507 415.841V411.04C735.507 404.345 730.081 398.917 723.388 398.917Z" fill="var(--fill-0, black)"/>
</g>
</g>
<defs>
<clipPath id="clip0_53_8131">
<rect width="915.981" height="605" fill="white"/>
</clipPath>
</defs>
</svg>
